<?xml version="1.0" encoding="utf-8"?>
<!-- Svg Vector Icons : http://www.onlinewebfonts.com/icon -->
<!DOCTYPE svg PUBLIC "-//W3C//DTD SVG 1.1//EN" "http://www.w3.org/Graphics/SVG/1.1/DTD/svg11.dtd">
<svg version="1.1" xmlns="http://www.w3.org/2000/svg" xmlns:xlink="http://www.w3.org/1999/xlink" x="0px" y="0px" viewBox="0 0 1000 1000" enable-background="new 0 0 1000 1000" xml:space="preserve">
<metadata> Svg Vector Icons : http://www.onlinewebfonts.com/icon </metadata>
<g><g transform="translate(0.000000,511.000000) scale(0.100000,-0.100000)"><path d="M154.7,4955.6l-54.7-52.5V110v-4793.1l54.7-52.5l52.5-54.7h4793.1h4793.1l52.5,54.7c72.2,70,72.2,170.6,0,240.6c-50.3,52.5-63.5,54.7-347.8,54.7h-297.5l-4.4,3913.7l-6.6,3915.8l-45.9,59.1c-24.1,32.8-72.2,80.9-105,105c-56.9,43.8-87.5,45.9-713.2,45.9s-656.3-2.2-713.2-45.9c-32.8-24.1-80.9-72.2-105-105l-45.9-59.1l-6.6-3915.8l-4.4-3913.7h-175h-175l-4.4,2513.6c-6.6,2500.5-6.6,2515.8-52.5,2574.8c-24.1,32.8-72.2,80.9-105,105c-56.9,43.8-87.5,45.9-713.2,45.9c-625.7,0-656.3-2.2-713.2-45.9c-32.8-24.1-80.9-72.2-105-105c-45.9-59.1-45.9-74.4-52.5-2574.8l-4.4-2513.6h-175h-175l-4.4,3213.6c-6.6,3209.2-6.6,3215.8-52.5,3274.9c-24.1,32.8-72.2,80.9-105,105c-56.9,43.8-87.5,45.9-713.2,45.9c-625.7,0-656.3-2.2-713.2-45.9c-32.8-24.1-80.9-72.2-105-105c-45.9-59.1-45.9-65.6-52.5-3274.9l-4.4-3213.6h-175h-175l-4.4,1813.5c-6.6,1793.9-6.6,1815.7-52.5,1874.8c-24.1,32.8-72.2,80.9-105,105c-56.9,43.8-87.5,45.9-713.2,45.9c-625.7,0-656.3-2.2-713.2-45.9c-32.8-24.1-80.9-72.2-105-105c-45.9-59.1-45.9-80.9-52.5-1874.8l-4.4-1813.5H800H450V230.3v4672.8l-54.7,52.5c-32.8,35-78.8,54.7-120.3,54.7S187.5,4990.6,154.7,4955.6z M8850.5-590v-3850.2h-525h-525V-590v3850.2h525h525V-590z M4650.3-1290.1v-3150.2h-525h-525v3150.2v3150.2h525h525V-1290.1z M6750.4-1990.1v-2450.1h-525h-525v2450.1V460h525h525V-1990.1z M2550.1-2690.2v-1750.1h-525h-525v1750.1v1750.1h525h525V-2690.2z"/></g></g>
</svg>