<?xml version="1.0" encoding="utf-8"?>
<!-- Svg Vector Icons : http://www.onlinewebfonts.com/icon -->
<!DOCTYPE svg PUBLIC "-//W3C//DTD SVG 1.1//EN" "http://www.w3.org/Graphics/SVG/1.1/DTD/svg11.dtd">
<svg version="1.1" xmlns="http://www.w3.org/2000/svg" xmlns:xlink="http://www.w3.org/1999/xlink" x="0px" y="0px" viewBox="0 0 1000 1000" enable-background="new 0 0 1000 1000" xml:space="preserve">
<metadata> Svg Vector Icons : http://www.onlinewebfonts.com/icon </metadata>
<g><g transform="translate(0.000000,511.000000) scale(0.100000,-0.100000)"><path d="M4739.8,4976.9c-186-50.3-365.4-157.5-494.5-297.6c-122.5-131.3-236.3-341.3-262.6-479.2c-13.1-74.4-28.4-85.3-216.6-179.4c-645.4-321.6-1157.4-894.9-1402.5-1568.7c-111.6-310.7-142.2-503.2-164.1-1050.2c-39.4-945.2-157.5-1518.4-420.1-2043.5c-251.6-501-638.9-875.2-1034.9-997.7c-120.3-37.2-216.6-113.8-260.4-207.9c-32.8-65.6-37.2-140-30.6-525.1c6.6-485.7,10.9-503.2,151-606.1C749.1-3087.8,2247.8-3291.3,3217-3335c389.4-17.5,382.9-17.5,382.9-115.9c2.2-153.2,65.6-387.3,155.3-573.3c227.5-457.3,726.4-765.8,1244.9-765.8c518.6,0,1017.4,308.5,1245,765.8c89.7,186,153.2,420.1,155.3,573.3c0,100.6-28.4,94.1,536,126.9c1021.8,56.9,2317,238.5,2459.2,345.7c137.8,102.8,144.4,124.7,151,579.8c4.4,231.9,2.2,452.9-6.6,492.3c-19.7,109.4-129.1,216.6-253.8,253.8c-413.5,122.5-809.5,498.9-1065.5,1010.8c-262.5,525.1-380.7,1098.3-420.1,2043.5c-24.1,557.9-52.5,743.9-172.9,1067.7c-245,669.5-785.5,1262.4-1428.7,1568.8c-153.1,74.4-168.5,85.3-181.6,159.7c-26.3,140-140,350.1-262.5,481.3C5501.2,4955,5096.5,5073.2,4739.8,4976.9z M5212.4,4626.8c146.6-50.3,277.9-146.6,358.8-262.6c37.2-54.7,63.5-102.8,59.1-109.4c-6.6-4.4-107.2,6.6-227.6,24.1c-118.1,17.5-299.7,32.8-402.6,32.8s-284.4-15.3-402.6-32.8c-120.3-17.5-221-28.4-227.5-24.1c-4.4,6.6,21.9,54.7,59.1,109.4C4597.6,4609.3,4934.6,4720.9,5212.4,4626.8z M5372.2,3928.9c606.1-91.9,1155.2-409.2,1540.3-890.5c157.5-194.7,330.4-509.8,407-739.5c87.5-258.2,109.4-420.1,131.3-908C7487.9,507,7575.4,12.5,7794.2-543.2c264.7-669.5,763.6-1216.5,1282.1-1406.8L9201-1996v-345.7c0-312.9-4.4-345.7-39.4-356.6c-21.9-8.7-212.2-41.6-422.3-78.8c-2076.4-350.1-5402-350.1-7478.4,0c-210,37.2-400.4,70-422.3,78.8c-35,10.9-39.4,43.8-39.4,356.6v345.7l126.9,45.9c516.4,190.4,1015.2,737.3,1279.9,1406.8C2425,12.5,2512.5,498.2,2549.7,1390.9c10.9,264.7,35,544.8,52.5,623.6C2882.3,3292.2,4085.7,4125.8,5372.2,3928.9z M6050.4-3444.4c0-205.7-126.9-487.9-299.8-669.5c-400.4-420.1-1048-433.2-1474.7-26.3c-183.8,175-326,479.1-326,695.8v65.6h1050.2h1050.2V-3444.4z"/></g></g>
</svg>