<?xml version="1.0" encoding="utf-8"?>
<!-- Svg Vector Icons : http://www.onlinewebfonts.com/icon -->
<!DOCTYPE svg PUBLIC "-//W3C//DTD SVG 1.1//EN" "http://www.w3.org/Graphics/SVG/1.1/DTD/svg11.dtd">
<svg version="1.1" xmlns="http://www.w3.org/2000/svg" xmlns:xlink="http://www.w3.org/1999/xlink" x="0px" y="0px" viewBox="0 0 1000 1000" enable-background="new 0 0 1000 1000" xml:space="preserve">
<metadata> Svg Vector Icons : http://www.onlinewebfonts.com/icon </metadata>
<g><g transform="translate(0.000000,511.000000) scale(0.100000,-0.100000)"><path d="M4739.6,4976.9c-365.4-98.5-693.6-437.6-757.1-781.1c-15.3-76.6-26.3-87.5-179.4-157.5c-253.8-116-520.8-306.3-754.9-531.7c-238.5-229.8-293.2-317.3-258.2-411.4c30.6-78.8,83.1-116,161.9-118.2c50.3,0,98.5,37.2,251.6,192.5c249.4,256,444.2,400.4,735.2,542.7c938.7,457.3,2045.9,269.1,2789.9-472.6c343.5-343.5,566.7-752.7,669.6-1231.9c19.7-89.7,41.6-358.9,52.5-630.2c39.4-954,159.7-1549.2,428.9-2118.1c282.3-599.5,759.3-1070,1240.6-1225.3l81-28.4v-347.9v-347.9l-59.1-13.1c-122.5-26.2-148.8-35-207.9-56.9c-124.7-48.1-126.9-236.3-4.4-304.1c48.1-24.1,83.2-24.1,234.1,8.7c186,37.2,256,74.4,330.4,177.2c41.5,54.7,45.9,96.3,52.5,479.2c4.4,231.9,2.2,452.9-6.5,492.3c-21.9,120.3-124.8,214.4-291,267C8647.6-1447.4,8181.5-823.8,7956.1,88.7c-91.9,369.8-129.1,693.6-155.4,1308.5c-24.1,562.3-52.5,746.1-172.9,1072.2c-245,669.6-798.7,1275.7-1431,1568.9c-153.2,70-164.1,81-179.4,157.5c-26.3,142.2-140,350.1-262.6,483.6C5501.1,4955,5096.3,5073.2,4739.6,4976.9z M5295.4,4589.6c107.2-54.7,264.7-201.3,315.1-297.6c15.3-24.1,21.9-46,17.5-46c-4.4,0-105,15.3-225.4,32.8c-317.3,48.1-632.4,39.4-958.4-21.9c-81-15.3-83.2-15.3-56.9,32.8c81,148.8,282.3,308.5,448.6,352.3C4958.4,4675,5177.2,4650.9,5295.4,4589.6z"/><path d="M678.5,4432.1c-37.2-35-54.7-76.6-54.7-124.7c0-65.6,319.5-391.7,4251.5-4321.5c3929.9-3932.1,4255.9-4251.5,4321.5-4251.5c96.3,0,179.5,83.1,179.5,179.4c0,65.6-319.5,391.7-4251.5,4321.5C1194.9,4167.3,868.8,4486.8,803.2,4486.8C755.1,4486.8,713.5,4469.3,678.5,4432.1z"/><path d="M2264.9,1850.1c-50.3-52.5-52.5-74.4-70-507.6c-19.7-547-61.3-890.6-151-1253.8c-225.4-912.4-691.4-1536.1-1293.2-1728.6c-166.3-52.5-269.1-146.6-291-267c-8.8-39.4-10.9-260.4-6.6-492.3c6.6-455.1,13.1-477,151-579.8c144.4-109.4,1643.3-312.9,2612.6-356.7c389.5-17.5,382.9-17.5,382.9-116c2.2-153.2,65.6-387.3,155.4-573.3c70-140,131.3-223.2,258.2-352.3c551.4-549.2,1424.5-551.4,1971.5,0c245,247.3,372,514.2,409.2,866.5l17.5,153.2l295.4,15.3c533.9,26.3,612.7,37.2,669.6,96.3c72.2,70,67.8,151-13.1,232c-63.5,61.3-74.4,65.6-181.6,52.5c-610.5-67.8-2956.1-94.1-3811.7-39.4c-1070,67.8-2175,201.3-2531.7,301.9c-35,10.9-39.4,46-39.4,358.9v345.7L882-1966c479.2,155.4,956.2,625.8,1240.7,1227.5c267,564.5,391.7,1186,420.1,2076.5l13.1,470.4l-50.3,48.1C2433.3,1922.3,2330.5,1920.1,2264.9,1850.1z M6050.3-3445.1c0-205.7-126.9-487.9-299.8-669.6c-400.4-420.1-1048.1-433.3-1474.8-26.3c-183.8,175-326,479.2-326,695.8v65.6H5000h1050.3V-3445.1z"/></g></g>
</svg>