<?xml version="1.0" encoding="utf-8"?>
<!-- Svg Vector Icons : http://www.onlinewebfonts.com/icon -->
<!DOCTYPE svg PUBLIC "-//W3C//DTD SVG 1.1//EN" "http://www.w3.org/Graphics/SVG/1.1/DTD/svg11.dtd">
<svg version="1.1" xmlns="http://www.w3.org/2000/svg" xmlns:xlink="http://www.w3.org/1999/xlink" x="0px" y="0px" viewBox="0 0 1000 1000" enable-background="new 0 0 1000 1000" xml:space="preserve">
<metadata> Svg Vector Icons : http://www.onlinewebfonts.com/icon </metadata>
<g><g transform="translate(0.000000,511.000000) scale(0.100000,-0.100000)"><path d="M1769.9,4947.4c-94.5-51.1-166-168.5-886-1422.3L100,2159.1l5.1-3350.1c5.1-3339.9,5.1-3350.1,58.7-3419c28.1-38.3,84.3-94.5,122.6-122.6l69-53.6H5000h4644.7l68.9,53.6c38.3,28.1,94.5,84.3,122.6,122.6c53.6,68.9,53.6,79.1,58.7,3419l5.1,3350.1l-783.9,1366.1c-720,1253.7-791.6,1371.2-886,1422.3l-102.1,58.7H5000H1872.1L1769.9,4947.4z M4359.1,3392.4c-97-663.9-173.6-1215.4-176.2-1225.6c0-23-3600.3-28.1-3600.3-7.7c0,7.7,311.5,559.2,692,1225.6l694.5,1212.9h1281.8h1279.3L4359.1,3392.4z M5063.8,4515.9c7.6-46,89.4-605.1,178.8-1243.5l166-1161.8v-799.2V512.2H5000h-408.5v799.2v799.2l166,1161.8c204.3,1442.7,183.9,1325.2,242.6,1325.2C5035.7,4597.6,5053.6,4574.6,5063.8,4515.9z M8725.4,3384.7c380.4-666.4,692-1218,692-1225.6s-809.5-12.8-1797.6-12.8H5822.2l-28.1,173.6c-15.3,94.5-91.9,620.5-168.5,1166.9c-76.6,549-145.6,1021.4-153.2,1054.6l-12.8,56.2h1284.3h1286.9L8725.4,3384.7z M4182.9,920.7V103.6H5000h817.1v817.1v817.1h1838.5H9494v-3064.1v-3064.1H5000H506v3064.1v3064.1h1838.5h1838.5V920.7z"/><path d="M3664.6-1339.1l-298.8-600h204.3h204.3v-549c0-551.5,0-551.5,63.8-612.8c81.7-84.3,199.2-84.3,280.9,0c63.8,61.3,63.8,61.3,63.8,612.8v549h204.3h204.3l-298.8,600c-166,329.4-306.4,600-314.1,600S3830.5-1009.7,3664.6-1339.1z"/><path d="M5707.3-1339.1l-298.7-600h204.3h204.3v-549c0-551.5,0-551.5,63.8-612.8c38.3-40.8,91.9-63.8,140.4-63.8c48.5,0,102.1,23,140.4,63.8c63.8,61.3,63.8,61.3,63.8,612.8v549h204.3h204.3l-298.8,600c-166,329.4-306.4,600-314,600C6013.7-739,5873.2-1009.7,5707.3-1339.1z"/><path d="M3429.6-3637.1c-40.9-38.3-63.8-91.9-63.8-140.4s23-102.1,63.8-140.4l61.3-63.8H5000h1509.1l61.3,63.8c40.8,38.3,63.8,91.9,63.8,140.4s-23,102.1-63.8,140.4l-61.3,63.8H5000H3490.9L3429.6-3637.1z"/></g></g>
</svg>