<?xml version="1.0" encoding="utf-8"?>
<!-- Svg Vector Icons : http://www.onlinewebfonts.com/icon -->
<!DOCTYPE svg PUBLIC "-//W3C//DTD SVG 1.1//EN" "http://www.w3.org/Graphics/SVG/1.1/DTD/svg11.dtd">
<svg version="1.1" xmlns="http://www.w3.org/2000/svg" xmlns:xlink="http://www.w3.org/1999/xlink" x="0px" y="0px" viewBox="0 0 1000 1000" enable-background="new 0 0 1000 1000" xml:space="preserve">
<metadata> Svg Vector Icons : http://www.onlinewebfonts.com/icon </metadata>
<g><g transform="translate(0.000000,511.000000) scale(0.100000,-0.100000)"><path d="M1722.7,4778.5c-125.2-40.9-339.9-260.7-378.2-391c-17.9-58.8-30.7-168.7-30.7-247.9v-143.1l-483-7.7c-529-7.7-552-15.3-677.2-184l-53.7-69v-4035v-4035l53.7-69c28.1-38.3,84.3-94.6,122.7-122.7c69-53.7,76.7-53.7,4035-61.3l3966-5.1l810.1,810.1l812.6,812.6l-5.1,3352.7c-7.7,3339.9-7.7,3352.7-61.3,3421.7c-125.2,168.7-148.2,176.3-677.2,184l-483,7.7v143.1c0,79.2-12.8,189.1-30.7,247.9c-40.9,140.5-253,352.7-393.5,393.5c-240.2,71.6-431.9,20.4-610.8-161c-145.7-143.1-191.7-260.7-191.7-483V3994h-204.4h-204.4v143.1c0,79.2-12.8,191.7-30.7,250.4c-40.9,140.5-253,352.7-393.5,393.5c-240.2,71.6-431.9,20.4-610.8-161c-145.7-143.1-191.7-260.7-191.7-483V3994h-817.7h-817.7v143.1c0,79.2-12.8,191.7-30.7,250.4c-40.9,140.5-253,352.7-393.5,393.5c-240.2,71.6-431.9,20.4-610.7-161c-145.7-143.1-191.7-260.7-191.7-483V3994h-204.4h-204.4v143.1c0,222.3-46,339.9-191.7,483C2169.9,4801.5,1960.3,4852.6,1722.7,4778.5z M2067.7,4339c63.9-61.3,63.9-61.3,63.9-613.3v-549.4h-204.4h-204.4v549.4c0,552,0,552,63.9,613.3c38.3,40.9,92,63.9,140.5,63.9C1975.7,4402.9,2029.3,4379.9,2067.7,4339z M3703.1,4339c63.9-61.3,63.9-61.3,63.9-613.3v-549.4h-204.4h-204.4v549.4c0,552,0,552,63.9,613.3c38.3,40.9,92,63.9,140.6,63.9S3664.8,4379.9,3703.1,4339z M6565.2,4339c63.9-61.3,63.9-61.3,63.9-613.3v-549.4h-204.4h-204.4v549.4c0,552,0,552,63.9,613.3c38.3,40.9,92,63.9,140.5,63.9S6526.9,4379.9,6565.2,4339z M8200.7,4339c63.9-61.3,63.9-61.3,63.9-613.3v-549.4h-204.4h-204.4v549.4c0,552,0,552,63.9,613.3c38.3,40.9,92,63.9,140.5,63.9C8108.7,4402.9,8162.3,4379.9,8200.7,4339z M1318.9,3306.6c7.7-301.5,30.7-360.3,184-472.8c63.9-48.5,107.3-53.7,424.2-53.7s360.3,5.1,424.2,53.7c153.3,112.4,176.3,171.2,184,472.8l10.2,278.5h199.3h199.3l10.2-278.5c7.7-301.5,30.7-360.3,184-472.8c63.9-48.5,107.3-53.7,424.2-53.7c316.9,0,360.3,5.1,424.2,53.7c153.3,112.4,176.3,171.2,184,472.8l10.2,278.5h812.6h812.6l10.2-278.5c7.7-301.5,30.7-360.3,184-472.8c63.9-48.5,107.3-53.7,424.2-53.7s360.3,5.1,424.2,53.7c153.3,112.4,176.3,171.2,184,472.8l10.2,278.5h199.3h199.3l10.2-278.5c7.7-301.5,30.7-360.3,184-472.8c63.9-48.5,107.3-53.7,424.2-53.7c316.9,0,360.3,5.1,424.2,53.7c153.3,112.4,176.3,171.2,184,472.8l10.2,278.5h406.3h406.3v-613.3v-613.3H4993.6H496.1v613.3v613.3h406.3h406.3L1318.9,3306.6z M9491.1-299.1v-2246.2l-687.4-7.7c-649.1-7.7-692.5-10.2-758.9-61.3c-38.3-28.1-94.6-84.3-122.7-122.7c-51.1-66.4-53.7-109.9-61.3-759l-7.7-687.4H4175.9H496.1v3066.5v3066.5h4497.5h4497.5V-299.1z M9312.3-2964.4c0-2.6-235.1-240.2-523.9-529l-523.9-523.9v531.5v529h523.9C9077.1-2956.7,9312.3-2959.3,9312.3-2964.4z"/><path d="M1786.6,659.2l-63.9-61.3v-1714.7v-1714.7l63.9-61.3l61.3-63.9h2123.5H6095l61.3,63.9l63.9,61.3v756.4v753.8h958.3h960.8l61.3,63.9l63.9,61.3v897v896.9l-63.9,61.3l-61.3,63.9H4993.6H1847.9L1786.6,659.2z M3767-299.1v-613.3h-817.7h-817.7v613.3v613.3h817.7H3767V-299.1z M5811.3-299.1v-613.3h-817.7h-817.7v613.3v613.3h817.7h817.7V-299.1z M7855.7-299.1v-613.3h-817.7h-817.7v613.3v613.3h817.7h817.7V-299.1z M3767-1934.6v-613.3h-817.7h-817.7v613.3v613.3h817.7H3767V-1934.6z M5811.3-1934.6v-613.3h-817.7h-817.7v613.3v613.3h817.7h817.7V-1934.6z"/></g></g>
</svg>