<?xml version="1.0" encoding="utf-8"?>
<!-- Svg Vector Icons : http://www.onlinewebfonts.com/icon -->
<!DOCTYPE svg PUBLIC "-//W3C//DTD SVG 1.1//EN" "http://www.w3.org/Graphics/SVG/1.1/DTD/svg11.dtd">
<svg version="1.1" xmlns="http://www.w3.org/2000/svg" xmlns:xlink="http://www.w3.org/1999/xlink" x="0px" y="0px" viewBox="0 0 1000 1000" enable-background="new 0 0 1000 1000" xml:space="preserve">
<metadata> Svg Vector Icons : http://www.onlinewebfonts.com/icon </metadata>
<g><g transform="translate(0.000000,511.000000) scale(0.100000,-0.100000)"><path d="M7854.8,4998.1c-278.5-50.4-570.1-186.4-804.7-372.7c-210.5-168.8-1309-1291.5-1401.1-1431.8c-315.7-482.4-381.5-1061.2-184.2-1589.7c85.5-225.9,223.6-304.8,335.5-190.8c70.2,68,68,107.4-13.2,348.6c-129.3,375-107.4,725.8,70.2,1087.6c87.7,177.6,120.6,214.9,741.1,839.8c688.5,692.9,806.9,789.3,1081,885.8c195.1,70.2,554.7,92.1,769.6,50.4c410-78.9,774-357.4,960.4-734.5C9611.1,3483,9608.9,3051,9405,2630c-87.7-179.8-114-208.3-785-879.3c-664.4-664.4-699.4-695-879.2-785c-359.6-177.6-712.6-199.5-1091.9-70.2c-236.8,81.1-276.3,83.3-344.2,13.2c-114-111.8-35.1-250,190.8-335.5C7023.8,376,7604.9,444,8085,757.5c149.1,98.7,1245.4,1173.1,1434,1407.7c144.7,179.8,282.9,447.3,339.9,662.2c54.8,197.3,54.8,679.7,0,877.1c-162.2,600.8-662.2,1102.9-1252,1260.8C8449,5006.8,8014.9,5026.6,7854.8,4998.1z"/><path d="M4875,233.5C3377.4-1261.9,3245.9-1400,3245.9-1465.8c0-96.5,83.3-179.8,179.8-179.8c65.8,0,203.9,131.6,1699.3,1629.1C6622.6,1478.9,6754.1,1617,6754.1,1682.8c0,48.2-17.5,89.9-54.8,125c-35.1,37.3-76.7,54.8-125,54.8C6508.5,1862.6,6370.4,1731,4875,233.5z"/><path d="M2577.1-273c-271.9-54.8-449.5-127.2-679.7-282.9C1741.7-661.1,665.2-1718,481-1948.2c-144.7-179.8-282.8-447.3-339.9-662.2c-54.8-197.3-54.8-679.7,0-877.1c164.4-605.2,657.8-1098.5,1263-1262.9c199.5-54.8,679.7-54.8,874.9,0c182,50.4,383.7,140.3,543.8,245.6c149.1,98.7,1245.4,1173.1,1434,1407.7c142.5,177.6,282.9,447.3,337.7,651.2c57,214.9,65.8,541.6,24.1,754.3c-94.3,462.6-258.7,657.8-418.8,495.5c-70.2-68-68-107.4,13.2-348.6c129.4-375,107.4-725.8-70.2-1087.6c-87.7-177.6-120.6-214.9-719.2-817.9c-344.2-348.6-673.1-666.6-728-708.2c-250-184.2-528.4-271.9-855.1-271.9c-243.4,0-429.8,39.5-620.5,133.7c-287.2,140.3-504.3,359.6-642.5,644.6C388.9-3255,395.5-2823.1,595-2413c87.7,179.8,114,210.5,785,879.3c668.8,670.9,699.5,697.2,879.3,785c364,177.6,714.8,199.5,1091.9,70.2c236.8-81.1,276.3-83.3,344.2-13.2c98.7,96.5,57,217.1-98.7,296C3351.1-270.8,2879.7-213.8,2577.1-273z"/></g></g>
</svg>