<?xml version="1.0" encoding="utf-8"?>
<!-- Svg Vector Icons : http://www.onlinewebfonts.com/icon -->
<!DOCTYPE svg PUBLIC "-//W3C//DTD SVG 1.1//EN" "http://www.w3.org/Graphics/SVG/1.1/DTD/svg11.dtd">
<svg version="1.1" xmlns="http://www.w3.org/2000/svg" xmlns:xlink="http://www.w3.org/1999/xlink" x="0px" y="0px" viewBox="0 0 1000 1000" enable-background="new 0 0 1000 1000" xml:space="preserve">
<metadata> Svg Vector Icons : http://www.onlinewebfonts.com/icon </metadata>
<g><g transform="translate(0.000000,511.000000) scale(0.100000,-0.100000)"><path d="M4835.7,4996.5c-276.1-72.3-484.3-302.4-525.9-576.3l-15.3-103l-618-6.6c-604.8-6.6-618-8.8-725.3-61.4c-210.4-103-361.6-306.8-394.4-530.3l-15.3-103l-412-6.6c-451.4-6.6-471.1-13.1-578.5-157.8l-46-59.2v-3986v-3986.1l46-59.2c24.1-32.9,72.3-81.1,105.2-105.2c59.2-46,61.4-46,3344-46c3282.6,0,3284.8,0,3344,46c32.9,24.1,81.1,72.3,105.2,105.2l46,59.2v3986.1v3986l-46,59.2c-107.4,144.6-127.1,151.2-576.3,157.8l-412,6.6l-13.1,96.4c-30.7,219.1-188.5,433.9-398.8,536.9c-107.4,54.8-120.5,54.8-725.3,61.4l-615.8,6.6l-13.1,96.4c-30.7,221.3-190.7,436.1-398.8,534.7C5177.5,5003.1,4954,5027.2,4835.7,4996.5z M5192.8,4606.5c127.1-94.2,146.8-144.6,153.4-401l8.8-238.9l762.6-6.6c731.9-6.6,767-8.8,823.9-52.6c131.5-96.4,151.2-146.8,157.8-405.4l8.8-238.9H5000H2891.9l8.8,238.9c6.6,258.6,26.3,309,157.8,405.4c57,43.8,92,46,826.1,52.6l764.8,6.6v206c0,280.5,48.2,390,208.2,462.4C4945.2,4676.6,5118.3,4661.2,5192.8,4606.5z M2545.7,3142.7c0-100.8,8.8-131.5,54.8-175.3l52.6-54.8H5000h2346.9l52.6,54.8c46,43.8,54.8,74.5,54.8,175.3v120.5h350.6h350.6V-593.6v-3856.8H5000H1844.5v3856.8v3856.8h350.6h350.6V3142.7z"/><path d="M4040.2,1494.8c-15.3-6.6-166.5-216.9-335.3-471.1l-306.8-460.2l-129.3,122.7c-98.6,96.4-142.4,122.7-197.2,122.7c-92,0-175.3-85.5-175.3-177.5c0-59.2,32.9-103,212.6-287.1c216.9-219.1,269.5-252,368.1-227.9c74.5,19.7,821.7,1132.9,821.7,1225C4298.8,1457.5,4156.3,1543,4040.2,1494.8z"/><path d="M5054.8,1455.3c-35.1-32.9-54.8-78.9-54.8-120.5c0-41.6,19.7-87.7,54.8-120.5l52.6-54.8h944.5h944.4l52.6,54.8c35.1,32.9,54.8,78.9,54.8,120.5c0,41.6-19.7,87.6-54.8,120.5l-52.6,54.8h-944.4h-944.5L5054.8,1455.3z"/><path d="M4353.6,403.5c-35.1-32.9-54.8-78.9-54.8-120.5s19.7-87.7,54.8-120.5l52.6-54.8h1295.1h1295.1l52.6,54.8c35.1,32.9,54.8,78.9,54.8,120.5s-19.7,87.7-54.8,120.5l-52.6,54.8H5701.2H4406.1L4353.6,403.5z"/><path d="M4040.2-1660.8c-15.3-6.6-166.5-216.9-335.3-471.1l-306.8-460.2l-129.3,122.7c-98.6,96.4-142.4,122.7-197.2,122.7c-92,0-175.3-85.4-175.3-177.5c0-59.2,32.9-103,212.6-287.1c216.9-219.1,269.5-252,368.1-227.9c74.5,19.7,821.7,1132.9,821.7,1225C4298.8-1698,4156.3-1612.5,4040.2-1660.8z"/><path d="M5054.8-1700.2c-35.1-32.9-54.8-78.9-54.8-120.5c0-41.6,19.7-87.7,54.8-120.5l52.6-54.8h944.5h944.4l52.6,54.8c35.1,32.9,54.8,78.9,54.8,120.5c0,41.6-19.7,87.7-54.8,120.5l-52.6,54.8h-944.4h-944.5L5054.8-1700.2z"/><path d="M4353.6-2752.1c-35.1-32.9-54.8-78.9-54.8-120.5c0-41.6,19.7-87.6,54.8-120.5l52.6-54.8h1295.1h1295.1l52.6,54.8c35.1,32.9,54.8,78.9,54.8,120.5c0,41.7-19.7,87.7-54.8,120.5l-52.6,54.8H5701.2H4406.1L4353.6-2752.1z"/></g></g>
</svg>