<?xml version="1.0" encoding="utf-8"?>
<!-- Svg Vector Icons : http://www.onlinewebfonts.com/icon -->
<!DOCTYPE svg PUBLIC "-//W3C//DTD SVG 1.1//EN" "http://www.w3.org/Graphics/SVG/1.1/DTD/svg11.dtd">
<svg version="1.1" xmlns="http://www.w3.org/2000/svg" xmlns:xlink="http://www.w3.org/1999/xlink" x="0px" y="0px" viewBox="0 0 1000 1000" enable-background="new 0 0 1000 1000" xml:space="preserve">
<metadata> Svg Vector Icons : http://www.onlinewebfonts.com/icon </metadata>
<g><path d="M978.2,295c-13.9-11.6-34.4-9.7-46,4.2c-4.2,5.1-13.3,14.8-27.2,27.5c-23.5,21.7-51.4,43.4-83.6,63.8c-92.1,58.2-199.5,93-321.5,93c-122,0-229.4-34.8-321.4-93c-32.2-20.3-60.2-42.1-83.6-63.8C81.1,314,72,304.3,67.8,299.2c-11.6-13.9-32.1-15.7-46-4.2C7.9,306.6,6,327.2,17.6,341c6,7.2,17.1,18.9,33.1,33.7c26.3,24.2,57.3,48.5,93,71c19.3,12.2,39.3,23.5,59.8,33.8c-4.8,6.9-12.3,15.7-22.9,24.7c-6.9,5.8-14.6,11.2-23.1,15.9c-5,3-9.5,5.4-14.1,7.6c-15.6,7.5-32.7,13.2-49.7,17.2c-10.3,2.4-18,3.6-21.8,4.1c-18,2-30.9,18.1-28.9,36c2,17.9,18.1,30.9,36,28.9c23.9-2.6,58-10.6,92.8-27.4c6.3-3,12.4-6.3,18.3-9.8c11.5-6.3,22.7-14.1,32.8-22.7c19.9-16.7,33.2-33.8,41.2-48.1c59.7,22.7,124.1,37.2,192.7,41.4c-6.9,13.5-15.7,26.9-26.5,39.6c-5.9,6.9-12.4,13.4-19.4,19.5c-7.9,7-16.6,13-26,18.2c-17.3,9.6-36.2,15.8-55.1,19.3c-11.4,2.1-19.9,2.7-24.3,2.7c-18-0.1-32.7,14.4-32.7,32.5c-0.1,18,14.4,32.7,32.5,32.8c29.3,0.1,70-7.4,111.3-30.2c13.4-7.4,25.9-16.1,37.4-26.2c9.3-8.2,18-16.9,25.9-26.1c24.8-28.8,40-57.6,48.2-81.3c90.1-3.6,172.8-24.5,247.7-58.7c-1.3,18.9-6.9,38.7-17.1,66.4c-8.5,23.3-24.9,43.6-47.2,61c-21.6,16.9-43.4,27.4-56.8,32c-17.1,5.7-26.3,24.3-20.5,41.4c5.7,17.1,24.3,26.3,41.4,20.5c19.8-6.7,47.9-20.3,76.2-42.3c31.3-24.4,55.3-54.2,68.4-90.1c16.2-44.2,21.1-85.6,18.6-121.7c6.1-3.6,12.1-7.3,18-11c35.7-22.5,66.7-46.7,93-71c16-14.8,27-26.5,33.1-33.7C994,327.2,992.1,306.6,978.2,295L978.2,295z"/></g>
</svg>