<?xml version="1.0" encoding="utf-8"?>
<!-- Svg Vector Icons : http://www.onlinewebfonts.com/icon -->
<!DOCTYPE svg PUBLIC "-//W3C//DTD SVG 1.1//EN" "http://www.w3.org/Graphics/SVG/1.1/DTD/svg11.dtd">
<svg version="1.1" xmlns="http://www.w3.org/2000/svg" xmlns:xlink="http://www.w3.org/1999/xlink" x="0px" y="0px" viewBox="0 0 1000 1000" enable-background="new 0 0 1000 1000" xml:space="preserve">
<metadata> Svg Vector Icons : http://www.onlinewebfonts.com/icon </metadata>
<g><g transform="translate(0.000000,511.000000) scale(0.100000,-0.100000)"><path d="M4682.1,4986.8c-85.5-37.3-177.6-146.9-195.1-225.8c-6.6-35.1-37.3-234.6-68-445c-30.7-210.5-63.6-390.2-72.3-399c-8.8-8.8-63.6-19.7-120.6-21.9l-103-6.6l-225.8,372.7c-247.7,412.2-306.9,471.4-467,471.4c-140.3,0-517.4-160-600.7-254.3c-109.6-127.2-107.4-188.5,15.4-670.9l111.8-429.7l-87.7-57c-48.2-30.7-96.5-57-107.4-57s-175.4,116.2-368.3,260.9c-491.1,366.1-545.9,370.5-863.8,52.6c-317.9-320.1-313.5-372.7,52.6-863.8c142.5-190.7,260.9-357.4,260.9-368.3s-26.3-59.2-57-107.4l-57-87.7l-429.7,111.8c-482.3,122.8-543.7,125-670.9,15.4c-94.3-83.3-254.3-460.4-254.3-600.7c0-160,59.2-219.2,471.4-467l372.7-225.8l-6.6-103c-2.2-57-13.2-111.8-21.9-120.6c-8.8-8.8-212.7-46-451.6-81.1C282,613,240.3,597.6,146,470.5c-41.7-54.8-46-92.1-46-363.9c0-271.8,4.4-309.1,46-363.9C240.3-384.6,282-399.9,738-465.7c239-35.1,442.9-72.3,451.6-81.1c8.8-8.8,19.7-63.6,21.9-118.4l6.6-103L845.4-994.1C433.2-1244,374-1303.2,374-1463.2c0-140.3,160-517.4,254.3-600.7c127.2-109.6,188.5-107.4,670.9,15.4l431.9,111.8l54.8-85.5c30.7-46.1,57-94.3,57-107.4c0-11-118.4-179.8-260.9-370.5c-366.1-491.1-370.5-543.7-52.6-863.8c317.9-317.9,372.7-313.5,863.8,52.6c192.9,144.7,359.6,260.9,370.5,260.9c13.2,0,61.4-24.1,107.4-57l85.5-54.8l-111.8-431.9c-125-482.3-125-543.7-15.4-670.9c46-50.4,133.7-100.8,289.4-164.4c252.1-105.2,383.7-114,495.5-30.7c32.9,21.9,160,208.3,282.8,414.4l225.8,370.5l103-6.6c57-2.2,111.8-13.2,120.6-21.9c8.8-8.8,46-212.7,81.1-451.7c65.8-456,81.1-497.7,208.3-591.9c54.8-41.6,92.1-46,363.9-46c271.9,0,309.1,4.4,363.9,46c127.2,94.3,142.5,133.8,210.5,602.9c35.1,245.6,67.9,449.4,70.2,451.7c2.2,2.2,54.8,6.6,118.4,11l114,6.6l225.8-372.7c247.7-412.2,306.9-471.4,467-471.4c140.3,0,517.4,160,600.7,254.3c109.6,127.2,107.4,188.6-15.4,670.9l-111.8,431.9l85.5,54.8c46.1,30.7,94.3,57,107.4,57c11,0,177.6-116.2,370.5-260.9c491.1-366.1,545.9-370.5,863.8-52.6c317.9,320.1,313.5,372.7-52.6,863.8c-142.5,190.7-260.9,359.5-260.9,370.5c0,13.2,26.3,61.4,57,107.4l54.8,85.5l431.9-111.8c482.3-122.8,543.7-125,670.9-15.4c94.3,83.3,254.3,460.4,254.3,600.7c0,160-59.2,219.2-471.4,467l-372.7,225.8l6.6,114c4.4,63.6,8.8,116.2,11,118.4c2.2,2.2,206.1,35.1,451.7,70.1c469.2,68,508.6,83.3,602.9,210.5c41.7,54.8,46,92.1,46,363.9c0,271.9-4.4,309.1-46,363.9C9759.7,597.6,9718,613,9262,678.7c-239,35.1-442.9,72.3-451.7,81.1c-8.8,8.8-19.7,63.6-21.9,120.6l-6.6,103l370.5,225.8c206.1,122.8,392.4,249.9,414.3,282.8c83.3,111.8,74.6,243.3-30.7,495.5c-63.6,155.7-114,243.4-164.4,289.4c-127.2,109.6-188.6,109.6-670.9-15.4l-431.9-111.8l-54.8,85.5c-32.9,46-57,94.3-57,107.4c0,11,118.4,179.8,260.9,370.5c366.1,491.1,370.5,543.7,52.6,863.8c-317.9,317.9-372.7,313.5-863.8-52.6c-192.9-144.7-359.6-260.9-370.5-260.9c-13.1,0-61.4,26.3-107.4,57l-85.5,54.8l111.8,431.9c122.8,482.3,125,543.7,15.4,670.9c-83.3,94.3-460.4,254.3-600.7,254.3c-160,0-219.2-59.2-469.2-471.4l-225.8-372.7l-103,6.6c-54.8,2.2-109.6,13.2-118.4,21.9c-8.8,8.8-46,212.7-81.1,451.6c-65.8,456-81.1,497.7-208.3,591.9c-52.6,39.5-96.4,46-337.6,52.6C4826.8,5015.3,4728.1,5008.7,4682.1,4986.8z M5175.4,4657.9c0-15.4,129.4-920.8,142.5-991c11-63.6,15.4-65.8,195.1-92.1c98.7-15.4,254.3-46,344.2-68c122.8-32.9,168.8-35.1,186.4-17.5c15.4,15.4,140.3,221.4,280.6,460.4c140.3,236.8,258.7,431.9,263.1,431.9c15.3,0,289.4-116.2,302.5-127.2c8.8-8.8-43.8-241.2-116.2-519.6c-70.2-276.2-129.4-510.8-129.4-519.6c0-6.6,63.6-50.4,142.5-94.3c78.9-43.8,208.3-129.4,287.2-188.5c78.9-59.2,151.3-107.4,164.4-107.4c11,0,199.5,133.7,416.6,296c217.1,164.4,410,304.7,427.5,311.3c35.1,13.1,249.9-179.8,249.9-225.8c0-13.2-138.1-208.3-306.9-431.9c-168.8-225.8-306.9-418.8-306.9-429.7c0-13.2,48.2-85.5,107.4-164.4c59.2-78.9,144.7-208.3,188.5-287.2s87.7-142.5,94.3-142.5c8.8,0,243.4,59.2,519.6,131.5c278.4,70.2,510.8,122.8,519.6,114c32.9-35.1,127.1-298.2,111.8-313.5c-11-8.8-214.8-131.5-456-274c-241.2-142.5-440.7-258.7-445-260.9c-2.2-2.2,15.4-78.9,39.5-173.2c21.9-92.1,54.8-252.1,67.9-353c26.3-184.2,26.3-186.4,94.3-197.3c37.3-4.4,245.5-35.1,462.6-65.8c217.1-30.7,427.5-59.2,467-65.8l70.2-13.2V106.5c0-96.5-4.4-175.4-8.8-175.4c-15.3,0-920.8-129.3-990.9-142.5c-68-11-68-13.1-94.3-197.3c-13.1-100.8-43.8-256.5-65.8-344.2c-32.9-120.6-35.1-166.6-17.5-184.2c15.4-15.4,221.4-140.3,460.4-280.6c236.8-140.3,431.9-258.7,431.9-263.1c0-15.4-116.2-289.4-127.1-302.6c-8.8-8.8-241.2,43.8-519.6,116.2c-276.2,70.1-510.8,129.3-519.6,129.3c-6.6,0-50.4-63.6-94.3-142.5c-43.8-78.9-129.4-208.3-188.5-287.2c-59.2-78.9-107.4-151.3-107.4-164.4c0-11,133.7-199.5,296-416.6c164.4-217.1,304.8-410,311.3-427.5c13.1-35.1-179.8-249.9-225.8-249.9c-13.2,0-208.3,138.1-431.9,306.9c-225.8,168.8-418.8,306.9-429.7,306.9c-13.2,0-85.5-48.2-164.4-107.4c-78.9-59.2-208.3-144.7-287.2-188.6c-78.9-43.8-142.5-87.7-142.5-94.3c0-8.8,59.2-241.2,129.4-519.6c72.3-276.2,125-510.8,116.2-519.6c-13.2-11-287.2-127.2-302.5-127.2c-4.4,0-122.8,195.1-263.1,434.1c-140.3,236.8-265.3,442.9-280.6,458.2c-17.5,17.5-63.6,15.4-184.2-17.5c-87.7-21.9-243.4-52.6-344.2-65.8c-184.2-26.3-186.4-26.3-197.3-94.3c-13.1-70.1-142.5-975.6-142.5-990.9c0-4.4-78.9-8.8-175.4-8.8h-173.2l-13.2,70.2c-6.6,39.5-35.1,249.9-65.8,467c-30.7,217.1-61.4,425.3-65.8,462.6c-11,68-13.2,68-197.3,94.3c-100.8,13.1-260.9,46-353,68c-94.3,24.1-171,41.7-173.2,39.5c-2.2-4.4-118.4-203.9-260.9-445c-142.5-241.2-265.3-445-274-456c-15.4-15.4-278.4,78.9-313.5,111.8c-8.8,8.8,43.8,243.4,114,519.6c72.3,278.4,131.5,510.8,131.5,519.6c0,6.6-63.6,50.4-142.5,94.3c-78.9,43.8-208.3,129.4-287.2,188.6c-78.9,59.2-151.3,107.4-164.4,107.4c-11,0-203.9-138.1-429.7-306.9c-223.6-168.8-418.7-306.9-431.9-306.9c-46,0-239,214.8-225.8,249.9c6.6,17.5,146.9,210.5,311.3,427.5c162.2,217,296,405.6,296,416.6c0,13.1-48.2,85.5-107.4,164.4c-59.2,78.9-144.7,208.3-188.5,287.2c-43.8,78.9-87.7,142.5-94.3,142.5c-8.8,0-241.2-59.2-519.6-129.3c-276.2-72.4-510.8-125-519.6-116.2c-11,13.2-127.2,287.2-127.2,302.6c0,4.4,195.1,122.8,431.9,263.1c239,140.3,445.1,265.3,460.4,280.6c17.5,17.5,15.3,63.6-17.5,186.4c-21.9,89.9-52.6,245.5-68,344.2c-26.3,179.8-28.5,184.2-92.1,195.1c-70.2,13.2-975.6,142.5-991,142.5c-4.4,0-8.8,76.7-8.8,173.2v173.2l72.3,13.2c37.3,6.6,276.2,41.7,528.4,78.9c252.1,37.3,460.4,68,462.6,72.3c2.2,2.2,15.4,87.7,30.7,188.5c15.4,98.7,46,256.5,70.2,348.6c21.9,89.9,39.5,166.6,37.3,168.8c-4.4,2.2-195.1,114-425.3,249.9c-230.2,133.7-436.3,256.5-456,271.9c-32.9,24.1-32.9,37.3,21.9,168.8c30.7,78.9,63.6,149.1,70.2,157.9c8.8,8.8,243.4-43.8,519.6-114c278.4-72.3,508.6-131.5,515.2-131.5s50.4,63.6,96.5,142.5c46,78.9,131.5,208.3,190.7,289.4c59.2,81.1,107.4,155.6,107.4,164.4c0,11-142.5,208.3-317.9,440.7l-315.7,420.9l122.8,125c76.7,76.7,133.7,118.4,146.9,107.4c271.9-208.3,826.5-616.1,839.7-616.1c11,0,85.5,48.2,166.6,107.4c81.1,59.2,210.5,144.7,289.4,190.7c78.9,46,142.5,89.9,142.5,96.5s-59.2,239-131.5,515.2c-70.2,278.4-122.8,510.8-114,519.6c8.8,6.6,78.9,39.5,157.9,70.2c131.5,54.8,144.7,54.8,168.8,21.9c15.3-19.7,138.1-225.8,271.9-456c135.9-230.2,247.7-420.9,249.9-425.3c2.2-2.2,78.9,15.3,168.8,37.3c92.1,24.1,249.9,54.8,348.6,70.2c100.8,15.3,186.4,28.5,188.5,30.7c4.4,2.2,35.1,210.5,72.3,462.6c37.3,252.1,72.3,491.1,78.9,530.6l13.2,70.2h173.2C5098.7,4666.7,5175.4,4662.3,5175.4,4657.9z"/><path d="M4554.9,3230.7c-219.2-35.1-541.5-118.4-572.2-144.7c-11-11,177.6-495.5,447.2-1144.4l467-1129.1l144.7-8.8c359.5-26.3,622.6-289.4,653.3-653.3l13.1-146.9l1126.9-467c905.4-374.9,1131.3-462.6,1146.6-436.3c35.1,54.8,109.6,357.4,144.7,591.9c41.7,269.7,30.7,716.9-24.1,1001.9C7885.2,1818.8,7063,2750.5,5969,3107.9c-109.6,37.3-280.6,81.1-381.5,100.8C5333.2,3259.2,4798.3,3270.1,4554.9,3230.7z M5592,2849.2c835.3-190.7,1543.4-745.4,1927.1-1510.6c173.2-346.4,289.4-846.3,285-1245.3c0-254.3-43.8-548.1-78.9-541.5c-32.9,6.6-1607,657.7-1648.7,681.8c-17.5,8.8-43.8,70.2-61.4,133.7c-92.1,361.7-394.6,664.3-758.6,756.4c-81.1,19.7-120.6,43.8-140.3,81.1c-39.5,83.3-666.5,1602.6-670.9,1628.9C4430,2915,5252.1,2925.9,5592,2849.2z"/><path d="M3395.2,2820.7c-607.3-368.3-1052.4-881.3-1313.2-1517.1c-201.7-491.1-280.6-1063.3-217-1569.8c24.1-188.5,127.2-616,153.5-644.6c11-11,493.3,177.6,1146.6,447.2L4294,3.5l8.8,144.7c13.1,166.6,87.7,333.2,201.7,447.2l72.4,74.6l-467,1126.9c-256.5,620.4-480.1,1129.1-495.5,1133.5C3599.1,2932.5,3500.4,2884.3,3395.2,2820.7z M3811.7,1597.3l348.6-841.9L4088,621.7c-39.5-72.3-85.5-186.4-103-252.1c-17.5-65.8-43.8-127.2-61.4-135.9c-41.7-24.1-1620.2-675.3-1650.9-681.8c-30.7-6.6-76.7,298.2-76.7,541.5c-6.6,749.8,302.5,1484.3,844.1,2010.4c157.8,153.5,405.6,355.2,418.8,342C3460.9,2441.4,3621,2059.9,3811.7,1597.3z"/><path d="M3309.7-783.6c-618.2-256.5-1129.1-475.8-1133.5-488.9c-13.2-37.3,221.4-416.6,379.3-609.5c456-567.8,1131.3-971.2,1867.9-1118.1c267.5-52.6,885.7-52.6,1151,0c918.6,184.2,1694.7,736.7,2163.9,1545.6c50.4,87.7,89.9,171,85.5,182c-4.4,13.1-515.2,232.4-1133.5,488.9l-1126.9,467l-74.5-72.3c-41.7-41.7-125-100.9-188.5-133.8c-98.7-52.6-138.1-61.4-300.4-59.2c-157.9,0-203.9,8.8-300.4,59.2c-63.6,32.9-146.9,92.1-188.5,133.8l-74.5,72.3L3309.7-783.6z M4747.9-912.9c254.3-65.8,519.6-28.5,769.5,107.4l131.5,72.3l848.5-350.8l846.3-350.8l-70.2-98.7c-114-164.4-429.7-484.5-609.5-618.3c-306.9-230.2-710.3-407.8-1120.3-495.5c-254.3-54.8-833.1-54.8-1087.4,0c-410,87.7-813.4,265.3-1120.3,495.5c-184.2,138.1-502.1,458.2-609.5,616.1l-70.2,103l846.3,348.6L4351-733.2l131.5-72.3C4557.1-845,4675.5-893.2,4747.9-912.9z"/></g></g>
</svg>