<?xml version="1.0" encoding="utf-8"?>
<!-- Svg Vector Icons : http://www.onlinewebfonts.com/icon -->
<!DOCTYPE svg PUBLIC "-//W3C//DTD SVG 1.1//EN" "http://www.w3.org/Graphics/SVG/1.1/DTD/svg11.dtd">
<svg version="1.1" xmlns="http://www.w3.org/2000/svg" xmlns:xlink="http://www.w3.org/1999/xlink" x="0px" y="0px" viewBox="0 0 1000 1000" enable-background="new 0 0 1000 1000" xml:space="preserve">
<metadata> Svg Vector Icons : http://www.onlinewebfonts.com/icon </metadata>
<g><g transform="translate(0.000000,511.000000) scale(0.100000,-0.100000)"><path d="M161.2,4948.7C122,4909.6,100,4863,100,4809.1c0-71,71-151.9,720.3-803.6l720.3-722.7L1418.1,3148c-66.1-73.5-210.7-267-318.5-426.3C171,1335,43.7-416.7,761.5-1918.6c470.4-982.5,1222.5-1734.6,2207.5-2209.9c1276.5-614.9,2746.5-617.4,4040.1-9.8c369.9,174,928.6,543.9,1102.5,730.1l58.8,66.1l725.2-725.2c651.7-651.7,732.6-722.8,803.6-722.8c107.8,0,200.9,93.1,200.9,200.9c0,71-71.1,151.9-725.2,803.6c-659.1,661.5-720.3,730.1-681.1,761.9c164.2,134.7,553.7,715.4,737.5,1097.6c931,1933,436.1,4253.2-1205.4,5632.5C6614.6,4892.4,4661.9,5144.8,2991,4358.3c-370-174-928.5-543.9-1102.5-730.1l-58.8-66.2l-725.2,725.2C452.8,4939,372,5010,300.9,5010C247,5010,200.5,4987.9,161.2,4948.7z M5735,4360.8C7006.6,4135.3,8123.7,3344,8758.3,2221.9c590.4-1043.7,712.9-2317.7,333.2-3464.3c-151.9-465.5-497.4-1078-815.8-1443l-93.1-105.4L5142.1,252.1L2099.2,3292.5l105.3,93.1c396.9,343,1043.7,698.3,1546,847.7c245,73.5,558.6,137.2,857.5,174C4791.7,4429.3,5512.1,4400,5735,4360.8z"/></g></g>
</svg>