<?xml version="1.0" encoding="utf-8"?>
<!-- Svg Vector Icons : http://www.onlinewebfonts.com/icon -->
<!DOCTYPE svg PUBLIC "-//W3C//DTD SVG 1.1//EN" "http://www.w3.org/Graphics/SVG/1.1/DTD/svg11.dtd">
<svg version="1.1" xmlns="http://www.w3.org/2000/svg" xmlns:xlink="http://www.w3.org/1999/xlink" x="0px" y="0px" viewBox="0 0 1000 1000" enable-background="new 0 0 1000 1000" xml:space="preserve">
<metadata> Svg Vector Icons : http://www.onlinewebfonts.com/icon </metadata>
<g><g transform="translate(0.000000,511.000000) scale(0.100000,-0.100000)"><path d="M2057,4625.4c-35-15.3-85.3-52.5-111.6-81c-26.2-28.4-448.6-737.4-938.7-1571c-940.9-1603.9-947.4-1614.8-884-1768c37.2-85.3,4619.1-5553.4,4697.8-5603.7c76.6-50.3,282.3-50.3,356.7,0c78.8,50.3,4662.8,5518.3,4700,5603.7c63.4,151,56.9,164.1-884,1768c-490.1,833.7-912.4,1542.6-938.7,1571c-102.8,116,35,111.6-3058.9,111.6C2650,4653.8,2109.5,4649.4,2057,4625.4z M4671.8,4148.4C3409.3,2352,2995.7,1769.9,2987,1767.7c-8.8,0-231.9,929.9-582,2424.4l-26.3,113.8h1203.4h1201.3L4671.8,4148.4z M7571,4093.7c-28.4-118.2-161.9-689.2-299.8-1269.1c-135.7-582-251.6-1056.8-258.2-1056.8c-8.8,0-1052.5,1474.8-1669.5,2356.6l-126.9,181.6h1201.3h1203.4L7571,4093.7z M2380.9,2774.2c161.9-691.4,293.2-1260.3,291-1264.7c-4.4-2.2-481.4-2.2-1059,0l-1054.7,6.6l748.3,1273.5c413.5,700.2,757.1,1266.9,763.6,1258.2C2078.9,4039,2218.9,3465.7,2380.9,2774.2z M8695.7,2785.2l746.1-1269.1l-1054.7-6.6c-577.6-2.2-1054.7-2.2-1059,0c-4.4,6.6,575.5,2481.3,593,2531.6c6.5,17.5,15.3,26.3,19.7,21.9S8284.3,3483.2,8695.7,2785.2z M5886.2,2748l868.7-1231.9l-1746.1-6.6c-958.4-2.2-1748.3,0-1752.7,4.4c-10.9,10.9,1722,2463.8,1743.9,2463.8C5008.7,3977.7,5407,3424.1,5886.2,2748z M3704.6-1234.3c507.6-1312.9,921.2-2391.6,916.8-2393.7c-6.6-6.6-3767.9,4463.7-3971.4,4719.7l-50.3,63.5h1089.7h1089.7L3704.6-1234.3z M6833.6,1128.8C6783.3,982.2,5008.7-3590.9,5000-3590.9S3334.9,675.9,3170.8,1117.9c-13.1,35,83.2,37.2,1829.2,37.2C6422.2,1155.1,6840.2,1148.5,6833.6,1128.8z M9288.6,1019.4C8354.3-103.1,5382.9-3634.7,5378.5-3628.1c-4.4,4.4,409.2,1080.9,916.8,2393.7l925.6,2389.4h1089.7h1091.9L9288.6,1019.4z"/></g></g>
</svg>