<?xml version="1.0" encoding="utf-8"?>
<!-- Svg Vector Icons : http://www.onlinewebfonts.com/icon -->
<!DOCTYPE svg PUBLIC "-//W3C//DTD SVG 1.1//EN" "http://www.w3.org/Graphics/SVG/1.1/DTD/svg11.dtd">
<svg version="1.1" xmlns="http://www.w3.org/2000/svg" xmlns:xlink="http://www.w3.org/1999/xlink" x="0px" y="0px" viewBox="0 0 1000 1000" enable-background="new 0 0 1000 1000" xml:space="preserve">
<metadata> Svg Vector Icons : http://www.onlinewebfonts.com/icon </metadata>
<g><g transform="translate(0.000000,511.000000) scale(0.100000,-0.100000)"><path d="M3981.9,4966.2c-100.7-50.4-98.5-46-448.8-641.5c-278.1-470.7-315.3-569.3-267.1-694.1c10.9-30.7,258.4-376.6,549.6-766.3l529.9-711.6l-105.1-28.5c-278-72.3-599.9-188.3-794.8-286.8C2458.1,1342.7,1777.1,445,1558.2-645.4c-70-352.5-70-948,0-1300.5c284.6-1425.3,1366.2-2506.9,2791.5-2791.5c352.5-70.1,948.1-70.1,1300.5,0C7073.4-4452.8,8157.2-3369,8441.8-1945.9c70.1,352.5,70.1,948,0,1300.5C8288.6,121,7894.5,812.8,7325.2,1316.4c-440.1,387.5-913,632.8-1565.5,807.9l-105.1,28.5l529.8,711.6c291.2,389.7,538.6,735.7,549.6,766.3c48.2,122.6,10.9,221.1-267.1,691.9c-350.3,597.7-345.9,593.3-451,643.7c-83.2,41.6-135.8,43.8-1018.1,43.8C4115.5,5010,4065.1,5007.8,3981.9,4966.2z M4485.5,4315.9L4347.5,3970l-310.9-6.6l-310.9-6.6l41.6,72.3c24.1,39.4,116,197.1,205.8,350.3l162,280.2h245.2h243L4485.5,4315.9z M6007.1,4414.5c78.8-133.5,170.8-291.2,203.6-350.3l63.5-107.3l-310.9,6.6l-310.9,6.6l-137.9,345.9l-137.9,343.7h243h245.2L6007.1,4414.5z M5146.7,4298.4l133.5-339.4H5000h-280.2l133.5,339.4c74.4,186.1,140.1,339.4,146.7,339.4C5006.6,4637.8,5072.2,4484.5,5146.7,4298.4z M4457,3039.5c67.9-306.5,124.8-573.6,124.8-591.2c2.2-24.1-783.8,1009.3-860.4,1134.1c-13.2,21.9,46,26.3,295.6,21.9l313.1-6.6L4457,3039.5z M5302.1,3571.5c-4.4-21.9-72.3-328.4-151.1-678.7c-76.6-352.5-144.5-641.5-151.1-641.5c-6.6,0-74.4,289-151.1,641.5c-78.8,350.3-146.7,656.8-151.1,678.7c-8.8,35,15.3,37.2,302.1,37.2C5286.8,3608.7,5310.9,3606.6,5302.1,3571.5z M6276.4,3582.5c-8.8-15.3-208-284.6-440.1-597.7c-243-324-420.4-545.2-416-514.5c4.4,30.7,63.5,297.8,129.2,597.7l118.2,540.8h313.1C6226.1,3608.7,6289.6,3602.2,6276.4,3582.5z M5586.8,1802.5C6701.2,1585.7,7629.5,773.4,7988.6-295c264.9-792.6,199.2-1683.7-183.9-2443.4c-271.5-536.4-825.4-1090.4-1361.8-1361.8c-759.7-383.1-1650.8-448.8-2443.4-183.9c-464.2,155.4-862.6,405.1-1221.7,766.3c-459.8,457.6-751,1002.8-880.2,1646.5c-52.5,264.9-52.5,882.3,0,1151.6c127,639.3,420.4,1188.9,880.2,1646.5c503.6,505.8,1140.7,821.1,1828.2,906.4C4833.6,1861.6,5370,1846.2,5586.8,1802.5z"/><path d="M4693.5,1493.7C3463,1336.1,2510.6,462.5,2250.1-748.3c-56.9-260.5-56.9-834.2,0-1094.7c159.8-740,586.8-1370.6,1206.4-1788.8c275.9-186.1,641.5-337.2,996.2-413.8c260.6-56.9,834.2-56.9,1094.7,0C6668.4-3804.7,7509.1-2964,7749.9-1843c56.9,260.5,56.9,834.2,0,1094.7c-76.6,354.7-227.7,720.3-413.8,996.2c-122.6,181.7-168.6,236.5-372.2,444.5c-363.5,370-838.6,630.6-1372.8,751C5409.4,1485,4866.4,1515.6,4693.5,1493.7z M5372.2,1123.7c514.5-76.6,983.1-315.3,1357.5-689.7c829.8-832,956.8-2121.6,300-3098.1c-284.6-424.8-735.7-775.1-1217.3-941.5c-1171.4-409.4-2450,111.7-3010.5,1230.5C2337.6-1446.7,2525.9-310.4,3270.3,434C3828.6,992.4,4592.8,1244.1,5372.2,1123.7z"/></g></g>
</svg>