<?xml version="1.0" encoding="utf-8"?>
<!-- Svg Vector Icons : http://www.onlinewebfonts.com/icon -->
<!DOCTYPE svg PUBLIC "-//W3C//DTD SVG 1.1//EN" "http://www.w3.org/Graphics/SVG/1.1/DTD/svg11.dtd">
<svg version="1.1" xmlns="http://www.w3.org/2000/svg" xmlns:xlink="http://www.w3.org/1999/xlink" x="0px" y="0px" viewBox="0 0 1000 1000" enable-background="new 0 0 1000 1000" xml:space="preserve">
<metadata> Svg Vector Icons : http://www.onlinewebfonts.com/icon </metadata>
<g><path d="M336.7,14.7C143.6,14.7,10,171.2,10,364.3V990h653.3V364.3C663.3,171.2,529.7,14.7,336.7,14.7 M500,418.3H173.3V286.9c0-71.5,66.8-129.4,163.3-129.4S500,215.5,500,286.9V418.3z"/><path d="M794.6,528.4c0,26.6-21.5,48-48,48c-26.6,0-48.1-21.5-48.1-48c0-26.5,21.5-48.1,48.1-48.1C773,480.4,794.6,501.9,794.6,528.4"/><path d="M698.5,537.2h96.1v257.3h-96.1V537.2L698.5,537.2z"/><path d="M746.5,486.3c26.5,0,48.1,21.5,48.1,48.1c0,26.6-21.5,48.1-48.1,48.1c-26.6,0-48.1-21.5-48.1-48.1C698.4,507.8,720,486.3,746.5,486.3"/><path d="M698.5,782.5c0,79.6,64.6,144.2,144.2,144.2c79.6,0,144.2-64.6,144.2-144.2 M890.7,782.5c0,26.6-21.5,48.1-48.1,48.1c-26.5,0-48.1-21.5-48.1-48.1"/><path d="M890.7,234.4h96.1v560.1h-96.1V234.4z"/><path d="M938.7,260.4c20-1.8,48.1,149.7,48.1-28.8c0,26.6-21.5,48.1-48.1,48.1c-26.5,0-48.1-21.5-48.1-48.1C890.7,205,839.9,269.3,938.7,260.4"/><path d="M824,62.5l160.4,165.8l-69.1,66.9L754.8,129.4L824,62.5z"/><path d="M754,59.4c19.1-18.5,49.5-18,67.9,1.1c18.5,19.1,18,49.5-1.1,68c-19.1,18.5-49.5,17.9-67.9-1.1C734.4,108.2,734.9,77.8,754,59.4"/><path d="M986.8,234.4l-7.7,43.5l-55.3-19.2l24-33.6h25.2L986.8,234.4z"/><path d="M263,480.4h480.6v96.1H263V480.4L263,480.4z"/><path d="M10,10h980v980H10V10L10,10z"/></g>
</svg>