<?xml version="1.0" encoding="utf-8"?>
<!-- Svg Vector Icons : http://www.onlinewebfonts.com/icon -->
<!DOCTYPE svg PUBLIC "-//W3C//DTD SVG 1.1//EN" "http://www.w3.org/Graphics/SVG/1.1/DTD/svg11.dtd">
<svg version="1.1" xmlns="http://www.w3.org/2000/svg" xmlns:xlink="http://www.w3.org/1999/xlink" x="0px" y="0px" viewBox="0 0 1000 1000" enable-background="new 0 0 1000 1000" xml:space="preserve">
<metadata> Svg Vector Icons : http://www.onlinewebfonts.com/icon </metadata>
<g><path d="M819.9,323.2c-17.1-38-26.2-79.7-38.3-138.7C741.7,228.4,721.9,303.3,714,376c-7.2,13.3-15.8,24.1-26.3,32.4c-70.9-70.1-111.7-93.3-116.1-306.7c9.8-76.4,16.2-70,27.3-91.7C426.6,49.7,313.1,164,301.2,340.2c-7.7,117.8,45.2,217.2,123.7,299.1c3.6,2,7.2,3.9,10.6,5.8c-5.4,2.1-11.2,3.9-17.4,5.3c-102,23.5-229.5-44.8-250.9-341.3C120.3,342.8,79.3,508.7,79.3,589c0,221.4,188.6,401,420.7,401c232.5,0,420.7-179.6,420.7-401C920.7,486.6,884.2,393.6,819.9,323.2z"/></g>
</svg>