<?xml version="1.0" encoding="utf-8"?>
<!-- Svg Vector Icons : http://www.onlinewebfonts.com/icon -->
<!DOCTYPE svg PUBLIC "-//W3C//DTD SVG 1.1//EN" "http://www.w3.org/Graphics/SVG/1.1/DTD/svg11.dtd">
<svg version="1.1" xmlns="http://www.w3.org/2000/svg" xmlns:xlink="http://www.w3.org/1999/xlink" x="0px" y="0px" viewBox="0 0 1000 1000" enable-background="new 0 0 1000 1000" xml:space="preserve">
<metadata> Svg Vector Icons : http://www.onlinewebfonts.com/icon </metadata>
<g><g transform="translate(0.000000,511.000000) scale(0.100000,-0.100000)"><path d="M4835.8,4996.5c-201.4-52.5-378.7-199.2-470.6-385.3c-46-96.3-52.5-146.7-61.3-422.5c-6.6-223.3-17.5-310.8-35-302.1c-131.3,56.9-275.8,83.2-389.7,70c-339.3-35-591-293.3-623.9-639.2c-6.6-76.6-13.1-140.1-15.3-140.1c-2.2,0-56.9,19.7-122.6,46c-313,120.4-696.1-43.8-853.7-363.4l-54.7-109.5l-6.6-2351c-4.4-2042.4,0-2377.3,28.5-2548c81-466.3,341.5-897.5,715.8-1179.9c87.6-67.9,192.6-137.9,232-157.6l70.1-37.2v-580.1v-580.1l54.7-52.5c70-72.2,170.7-72.2,240.8,0l54.7,52.5v507.8v507.9l72.2-15.3c352.4-74.4,501.3-76.6,573.5-2.2c70.1,67.9,72.2,170.7,4.4,238.6c-41.6,41.6-83.2,52.5-238.6,63.5c-389.6,30.7-704.8,177.3-991.6,464.1c-199.2,199.2-313,380.9-400.6,634.8l-59.1,175.1V292.4c0,2390.4,0,2401.3,46,2460.4c85.4,116,155.4,151,293.3,151c137.9,0,208-35,293.3-151c43.8-59.1,46-89.7,56.9-1309L3259.7,196l52.5-41.6c65.7-52.5,157.6-52.5,223.3,0L3588,196l10.9,1598c10.9,1571.7,10.9,1600.2,56.9,1659.3c85.4,116,155.4,151,293.3,151c137.9,0,208-35,293.3-151c43.8-59.1,46-89.7,56.9-1309l10.9-1247.7l52.5-41.6c65.7-52.5,157.6-52.5,223.3,0l52.5,41.6l10.9,1773.1c10.9,1749,10.9,1775.3,56.9,1834.4c85.4,116,155.4,151,293.3,151c137.9,0,208-35,293.3-151c46-59.1,46-85.4,56.9-1834.4l10.9-1773.1l52.5-41.6c65.7-52.5,157.6-52.5,223.3,0l52.5,41.6l10.9,1247.7c10.9,1219.3,13.1,1249.9,56.9,1309c85.4,116,155.4,151,293.3,151c137.9,0,208-35,293.3-151c46-59.1,46-81,52.5-1886.9l4.4-1825.6h-63.5c-105.1,0-394-100.7-549.4-190.4c-194.8-113.8-475-396.2-580.1-582.3c-111.6-201.4-183.9-437.8-199.2-658.9c-15.3-177.3-13.1-186.1,41.6-240.8c118.2-118.2,299.9-37.2,299.9,135.7c0,293.3,142.3,626.1,363.4,845c216.7,218.9,551.6,363.4,842.8,363.4c46,0,102.9,17.5,131.3,41.6l52.5,41.6l10.9,917.2l10.9,915l54.7,109.5c100.7,203.6,328.3,369.9,549.4,398.4l87.6,13.1l-6.6-1978.9l-6.6-1978.9l-59.1-175.1c-87.6-253.9-201.4-435.6-400.6-634.8c-286.8-286.7-602-433.4-991.6-464.1c-155.4-10.9-197-21.9-238.6-63.5c-67.9-67.9-65.7-170.8,4.4-238.6c72.2-74.4,221.1-72.2,575.7,2.2l70,15.3v-507.9v-507.8l54.7-52.5c70.1-72.2,170.7-72.2,240.8,0l54.7,52.5v580.1v577.9l116,65.7c400.6,229.9,739.9,678.6,875.6,1162.4c46,164.2,48.2,194.8,54.7,2169.3c4.4,1372.5,0,2027-15.3,2081.8c-32.8,109.5-142.3,212.3-251.7,234.2c-175.1,35-466.3-43.8-669.8-181.7l-107.3-72.2l-6.6,757.4c-6.6,757.4-6.6,759.6-61.3,869c-111.6,227.7-332.7,378.7-582.3,400.6c-124.8,8.8-201.4-6.6-363.4-72.2c-30.6-13.1-35,17.5-43.8,299.9c-6.6,278-13.1,326.2-61.3,422.5c-67.9,140.1-201.4,271.4-339.3,337.1C5177.2,5003.1,4954,5027.2,4835.8,4996.5z"/></g></g>
</svg>