<?xml version="1.0" encoding="utf-8"?>
<!-- Svg Vector Icons : http://www.onlinewebfonts.com/icon -->
<!DOCTYPE svg PUBLIC "-//W3C//DTD SVG 1.1//EN" "http://www.w3.org/Graphics/SVG/1.1/DTD/svg11.dtd">
<svg version="1.1" xmlns="http://www.w3.org/2000/svg" xmlns:xlink="http://www.w3.org/1999/xlink" x="0px" y="0px" viewBox="0 0 1000 1000" enable-background="new 0 0 1000 1000" xml:space="preserve">
<metadata> Svg Vector Icons : http://www.onlinewebfonts.com/icon </metadata>
<g><g transform="translate(0.000000,511.000000) scale(0.100000,-0.100000)"><path d="M4508.4,4987.7c-446.6-43.8-965.4-175.1-1401-359C1130.6,3801.2-77.8,1785,121.4-351.6C320.6-2497,1912.1-4265.8,4031.2-4697.1c866.9-175.1,1830.1-102.9,2653.2,199.2c1177.8,435.6,2173.8,1333.2,2716.7,2449.6c313,643.6,466.3,1256.6,494.7,1970.2c54.7,1337.6-433.4,2616-1370.4,3588C7476.9,4595.8,6021.1,5132.2,4508.4,4987.7z M5441,4639.6c825.3-83.2,1635.3-398.4,2294.2-893.2c208-155.4,597.6-532,781.5-750.9c205.8-247.4,409.4-564.8,567-884.4C9793,672.9,9687.9-1043.4,8810-2376.6c-199.2-302.1-374.3-512.2-650.2-777.1c-275.8-269.3-378.7-352.4-674.2-547.3c-1589.3-1046.4-3688.7-978.6-5218.9,170.7c-208,155.4-597.6,532-781.5,750.9c-556,665.5-926,1558.7-1015.8,2447.5C351.2,845.8,732.1,2091.5,1485.2,2995.6c183.9,218.9,573.6,595.4,781.5,750.9C3170.8,4425.1,4328.9,4751.3,5441,4639.6z"/><path d="M4782,2875.2c-496.9-179.5-641.4-792.5-273.6-1158c142.3-144.5,273.6-197,492.6-197c218.9,0,350.3,52.5,492.5,197c144.5,142.3,197,273.6,197,492.5c0,218.9-52.5,350.3-197,492.6C5314,2881.7,5007.5,2956.2,4782,2875.2z M5138.9,2529.3c225.5-94.1,280.2-387.5,105.1-562.6c-245.2-247.4-648-26.3-584.5,319.6C4698.9,2492.1,4939.7,2614.7,5138.9,2529.3z"/><path d="M4482.1,1115.1c-54.7-24.1-111.6-72.2-137.9-113.8c-41.6-70-43.8-107.3-43.8-1593.7c0-1486.4,2.2-1523.6,43.8-1593.7c83.2-135.7,172.9-157.6,656.7-157.6c483.8,0,573.6,21.9,656.7,157.6c41.6,70.1,43.8,107.3,43.8,1593.7c0,1486.4-2.2,1523.7-43.8,1593.7c-83.2,135.7-172.9,157.6-656.7,157.6C4626.6,1158.9,4563.1,1152.3,4482.1,1115.1z M5351.2-592.4v-1401.1H5001h-350.3v1401.1V808.6H5001h350.3V-592.4z"/></g></g>
</svg>