<?xml version="1.0" encoding="utf-8"?>
<!-- Svg Vector Icons : http://www.onlinewebfonts.com/icon -->
<!DOCTYPE svg PUBLIC "-//W3C//DTD SVG 1.1//EN" "http://www.w3.org/Graphics/SVG/1.1/DTD/svg11.dtd">
<svg version="1.1" xmlns="http://www.w3.org/2000/svg" xmlns:xlink="http://www.w3.org/1999/xlink" x="0px" y="0px" viewBox="0 0 1000 1000" enable-background="new 0 0 1000 1000" xml:space="preserve">
<metadata> Svg Vector Icons : http://www.onlinewebfonts.com/icon </metadata>
<g><g transform="translate(0.000000,28.000000) scale(0.100000,-0.100000)"><path d="M1100.8-192.6c-70.4-246-175.9-2462.4-246.3-4959.8L749-9620h2673.5H6096l-175.9,2743.7c-175.9,3025.4,210.9,3271.7,598.1,351.8c175.9-1547.6,351.8-1899.3,949.5-1969.8c1266.6-175.9,2005.1,879.4,1723.8,2532.8c-105.5,809-246.3,2145.7-316.7,2990c-70.1,1125.7-316.4,1723.5-879.4,2216.1C6905,89.1,6271.8,53.7,7080.8-825.8c668.5-738.6,1336.7-3271.4,1372-5452.4c35-1019.9-105.8-1407.1-563-1512.5c-457.2-105.5-633.1,281.3-809,1864.3c-140.9,1090.7-457.2,2181-738.6,2427.3c-246.3,246.3-492.6,1160.8-563,2005.2L5673.8,53.7L3457.7,159.1C1909.8,229.6,1206.2,124.1,1100.8-192.6z M5146.1-2057v-1583H3387.3H1628.4v1583v1583h1758.9h1758.8V-2057z"/></g></g>
</svg>