<?xml version="1.0" encoding="utf-8"?>
<!-- Svg Vector Icons : http://www.onlinewebfonts.com/icon -->
<!DOCTYPE svg PUBLIC "-//W3C//DTD SVG 1.1//EN" "http://www.w3.org/Graphics/SVG/1.1/DTD/svg11.dtd">
<svg version="1.1" xmlns="http://www.w3.org/2000/svg" xmlns:xlink="http://www.w3.org/1999/xlink" x="0px" y="0px" viewBox="0 0 1000 1000" enable-background="new 0 0 1000 1000" xml:space="preserve">
<metadata> Svg Vector Icons : http://www.onlinewebfonts.com/icon </metadata>
<g><g transform="translate(0.000000,511.000000) scale(0.100000,-0.100000)"><path d="M4551.9,2641.5c-564.9-51.7-871.2-103.4-1292.5-218.3c-1085.7-293-2029.7-846.3-2900.9-1696.5L100,473.9L540.4,33.5l440.4-442.3L1201-186.7l220.2,220.2l-191.5,180c-222.1,208.7-227.9,168.5,57.4,402.1C2227.4,1385.4,3405,1864.1,4550,1938.8l193.4,13.4V1462V969.9h344.7h344.7v488.3v490.2l101.5-11.5c312.1-36.4,559.1-72.8,712.3-107.2c616.6-134,1229.3-381.1,1780.8-716.1c237.4-145.5,652.9-451.9,823.4-608.9l114.9-105.3l-181.9-183.8L8601.8,31.6L8822-188.6l220.2-220.2l178.1,178.1c97.7,95.7,291.1,294.9,428.9,440.4L9900,473.9l-227.9,231.7c-561.1,566.8-1074.2,940.2-1759.7,1279.1c-754.4,373.4-1499.3,576.4-2374.4,651C5327.4,2653,4710.9,2656.8,4551.9,2641.5z"/><path d="M6334.6-209.7c-819.5-838.7-970.8-986.1-1005.3-974.6c-22.9,7.6-109.1,17.2-193.4,23c-126.4,7.6-172.3,1.9-262.3-32.5c-143.6-53.6-287.2-183.8-354.2-321.7c-46-93.8-53.6-132.1-53.6-271.9c0-145.5,5.7-176.2,63.2-291.1c70.8-145.5,157-229.8,310.2-300.6c147.4-68.9,384.9-68.9,526.6-1.9c141.7,68.9,281.5,218.3,333.2,354.2c57.5,151.3,49.8,375.3-17.2,511.3l-44,90l572.5,585.9c314,323.6,746.8,765.9,959.3,984.2l386.8,398.3l-118.7,116.8c-67,65.1-124.5,118.7-128.3,118.7C7303.5,778.4,6865,334.1,6334.6-209.7z"/></g></g>
</svg>