<?xml version="1.0" encoding="utf-8"?>
<!-- Svg Vector Icons : http://www.onlinewebfonts.com/icon -->
<!DOCTYPE svg PUBLIC "-//W3C//DTD SVG 1.1//EN" "http://www.w3.org/Graphics/SVG/1.1/DTD/svg11.dtd">
<svg version="1.1" xmlns="http://www.w3.org/2000/svg" xmlns:xlink="http://www.w3.org/1999/xlink" x="0px" y="0px" viewBox="0 0 1000 1000" enable-background="new 0 0 1000 1000" xml:space="preserve">
<metadata> Svg Vector Icons : http://www.onlinewebfonts.com/icon </metadata>
<g><g transform="translate(0.000000,511.000000) scale(0.100000,-0.100000)"><path d="M2384.6,4290.3c-197-48.2-376.5-197-470.6-385.2l-54.7-109.4l-6.6-1118.4l-6.6-1118.4L1086.7,1235c-418-177.3-790.1-341.4-829.5-365.5c-37.2-21.9-89.7-83.2-113.8-135.7c-46-94.1-46-102.9-41.6-2204l6.6-2109.8l54.7-109.4c67.9-140.1,199.2-271.4,339.2-339.3l109.4-54.7H5000h4388.2l109.4,54.7c140.1,67.9,271.4,199.2,339.2,339.3l54.7,109.4l6.6,2109.8c4.4,2101.1,4.4,2109.9-41.6,2204c-24.1,52.5-76.6,113.8-113.8,135.7c-39.4,24.1-411.5,188.2-829.5,365.5l-759.5,323.9l-6.6,1118.4l-6.6,1118.4l-54.7,109.4c-67.8,140.1-199.2,271.4-339.2,339.2l-109.4,54.7l-2593.5,4.4C3616.8,4303.4,2421.8,4299.1,2384.6,4290.3z M7639.5,3902.9c32.8-24.1,81-72.2,105.1-105.1c46-59.1,46-78.8,52.5-2125.2l4.4-2063.9l-1400.7-801L5000-1993.3l-1400.7,801.1L2198.5-393.4v2033.2c0,1387.6,6.6,2052.9,24.1,2094.5c30.6,81,102.9,159.8,183.8,194.8c54.7,24.1,525.3,28.5,2619.8,24.1C7567.3,3948.9,7580.4,3948.9,7639.5,3902.9z M1839.6-172.3c-10.9-10.9-1346,744.1-1346,761.6c-2.2,6.6,302,140.1,671.9,297.7l671.9,286.7l6.6-667.5C1846.2,138.4,1844-165.8,1839.6-172.3z M8943.9,838.8c310.8-131.3,564.7-242.9,562.5-249.5c0-13.1-1319.8-766-1341.7-766c-6.6,0-13.1,304.2-13.1,678.5v678.5l116-50.3C8328.9,1101.5,8635.3,972.3,8943.9,838.8z M2671.3-1067.5c2184.3-1249.7,2210.5-1265,2328.7-1265s144.5,15.3,2328.7,1265C8541.2-373.7,9539.3,195.4,9543.6,195.4c6.6,0,6.6-836.1,4.4-1858.1c-6.6-1838.5-6.6-1860.4-52.5-1919.4c-24.1-32.8-72.2-81-105.1-105.1l-59.1-46H5000H668.7l-59.1,46c-32.8,24.1-81,72.2-105,105.1c-46,59.1-46,81-52.5,1919.4c-2.2,1022.1-2.2,1858.1,4.4,1858.1C460.8,195.4,1458.8-373.7,2671.3-1067.5z"/><path d="M5054.7,3204.7c-35-32.8-54.7-78.8-54.7-120.4s19.7-87.5,54.7-120.4l52.5-54.7h943.3h943.3l52.5,54.7c35,32.8,54.7,78.8,54.7,120.4s-19.7,87.5-54.7,120.4l-52.5,54.7h-943.3h-943.3L5054.7,3204.7z"/><path d="M2953.6,2154.2c-35-32.8-54.7-78.8-54.7-120.4s19.7-87.5,54.7-120.4l52.5-54.7H5000h1993.8l52.5,54.7c35,32.8,54.7,78.8,54.7,120.4s-19.7,87.5-54.7,120.4l-52.5,54.7H5000H3006.1L2953.6,2154.2z"/><path d="M2953.6,1103.6c-35-32.8-54.7-78.8-54.7-120.4s19.7-87.5,54.7-120.4l52.5-54.7H5000h1993.8l52.5,54.7c35,32.8,54.7,78.8,54.7,120.4s-19.7,87.5-54.7,120.4l-52.5,54.7H5000H3006.1L2953.6,1103.6z"/><path d="M2953.6,53.1c-35-32.8-54.7-78.8-54.7-120.4c0-41.6,19.7-87.5,54.7-120.4l52.5-54.7H5000h1993.8l52.5,54.7c35,32.8,54.7,78.8,54.7,120.4c0,41.6-19.7,87.5-54.7,120.4l-52.5,54.7H5000H3006.1L2953.6,53.1z"/></g></g>
</svg>