<?xml version="1.0" encoding="utf-8"?>
<!-- Svg Vector Icons : http://www.onlinewebfonts.com/icon -->
<!DOCTYPE svg PUBLIC "-//W3C//DTD SVG 1.1//EN" "http://www.w3.org/Graphics/SVG/1.1/DTD/svg11.dtd">
<svg version="1.1" xmlns="http://www.w3.org/2000/svg" xmlns:xlink="http://www.w3.org/1999/xlink" x="0px" y="0px" viewBox="0 0 1000 1000" enable-background="new 0 0 1000 1000" xml:space="preserve">
<metadata> Svg Vector Icons : http://www.onlinewebfonts.com/icon </metadata>
<g><g transform="translate(0.000000,511.000000) scale(0.100000,-0.100000)"><path d="M626.2,3245.1c-197.3-48.2-377.1-197.3-471.4-385.9L100,2749.6V107.8V-2534l54.8-109.6c68-140.3,199.5-271.8,339.8-339.8l109.6-54.8H5000h4395.8l109.6,54.8c140.3,68,271.9,199.5,339.8,339.8L9900-2534V107.8v2641.8l-54.8,109.6c-68,140.3-199.5,271.9-339.8,339.8l-109.6,54.8l-4351.9,4.4C2649.8,3258.3,663.4,3253.9,626.2,3245.1z M9231.3,2898.7c-2.2-11-83.3-76.7-182-149.1c-98.7-72.3-1037-771.7-2087.2-1554.4C5914.2,412.5,5043.8-229.8,5030.7-236.4c-13.2-4.4-960.3,684-2104.7,1530.3c-1144.4,846.3-2098.1,1550-2117.9,1563.2c-21.9,13.2-39.5,30.7-39.5,39.5c0,11,1903,17.5,4231.3,17.5C7328.3,2914.1,9231.3,2907.5,9231.3,2898.7z M2726.5,1004.5C4151.5-50.1,4881.6-576.2,4929.8-585c37.3-6.6,103.1-6.6,142.5,0c46.1,8.8,585.4,394.6,1615.8,1155.4c850.6,629.2,1837.2,1359.3,2192.4,1622.4c482.3,357.4,651.1,471.4,662.1,447.2c11-15.4,15.4-1175.1,13.1-2573.9c-6.6-2527.8-6.6-2543.2-52.6-2602.4c-24.1-32.9-72.4-81.1-105.3-105.2l-59.2-46.1H5000H661.3l-59.2,46.1c-32.9,24.1-81.1,72.3-105.2,105.2c-46,59.2-46,72.4-52.6,2606.8c-2.2,1401,0,2560.7,6.6,2576.1C463.9,2683.9,181.1,2885.6,2726.5,1004.5z"/></g></g>
</svg>