<?xml version="1.0" encoding="utf-8"?>
<!-- Svg Vector Icons : http://www.onlinewebfonts.com/icon -->
<!DOCTYPE svg PUBLIC "-//W3C//DTD SVG 1.1//EN" "http://www.w3.org/Graphics/SVG/1.1/DTD/svg11.dtd">
<svg version="1.1" xmlns="http://www.w3.org/2000/svg" xmlns:xlink="http://www.w3.org/1999/xlink" x="0px" y="0px" viewBox="0 0 1000 1000" enable-background="new 0 0 1000 1000" xml:space="preserve">
<metadata> Svg Vector Icons : http://www.onlinewebfonts.com/icon </metadata>
<g><g transform="translate(0.000000,511.000000) scale(0.100000,-0.100000)"><path d="M154.7,4956.6l-54.7-52.5V111v-4793.1l54.7-52.5l52.5-54.7h4793.1h4793.1l52.5,54.7c72.2,70,72.2,170.6,0,240.6l-52.5,54.7H5230c-2511.4,0-4561.2,8.8-4556.8,17.5C688.5-4380.2,2867.3-963.1,2878.3-961c6.6,0,166.3-310.6,356.6-691.3c190.3-380.7,350-689.1,352.2-684.7c4.4,4.4,380.6,603.8,833.5,1332.2c455,728.5,851,1360.7,881.6,1408.8l52.5,83.1l697.8-1045.7c382.8-577.5,704.4-1050.1,715.4-1054.4c26.3-8.8,1557.6,3073.6,1557.6,3134.9c0,124.7-170.6,207.8-273.5,133.4c-24.1-17.5-328.1-603.8-678.2-1301.6c-347.8-700-641-1271-647.5-1271c-6.6,0-317.2,457.2-689.1,1017.2c-371.9,557.9-682.5,1017.2-689.1,1017.2c-8.8,0-356.6-549.1-776.6-1218.5c-417.8-671.6-805-1288.5-857.5-1373.8l-98.4-150.9l-347.8,695.7c-308.4,616.9-352.2,691.3-376.3,656.3c-15.3-24.1-568.8-892.5-1229.4-1931.7L461-4095.8L450,415l-10.9,4513.1l-52.5,41.6C316.6,5026.6,218.1,5022.2,154.7,4956.6z"/><path d="M9456.5,4462.2c-50.3-30.6-781-1489.8-781-1562c0-118.1,153.1-201.3,264.7-142.2c52.5,30.6,785.4,1487.6,785.4,1564.1C9725.5,4442.5,9565.8,4525.6,9456.5,4462.2z"/><path d="M8358.3,2530.5c-220.9-96.3-273.5-389.4-100.6-562.2c245-247.2,647.5-26.2,584.1,319.4C8802.4,2493.3,8555.2,2618,8358.3,2530.5z"/></g></g>
</svg>