<?xml version="1.0" encoding="utf-8"?>
<!-- Svg Vector Icons : http://www.onlinewebfonts.com/icon -->
<!DOCTYPE svg PUBLIC "-//W3C//DTD SVG 1.1//EN" "http://www.w3.org/Graphics/SVG/1.1/DTD/svg11.dtd">
<svg version="1.1" xmlns="http://www.w3.org/2000/svg" xmlns:xlink="http://www.w3.org/1999/xlink" x="0px" y="0px" viewBox="0 0 1000 1000" enable-background="new 0 0 1000 1000" xml:space="preserve">
<metadata> Svg Vector Icons : http://www.onlinewebfonts.com/icon </metadata>
<g><g transform="translate(0.000000,511.000000) scale(0.100000,-0.100000)"><path d="M3253.7,5004.1c-415.8-45.9-838.2-168.5-1225.6-361.1c-345.8-170.7-625.9-374.2-908.2-654.4c-501.2-501.2-825.1-1111.8-967.3-1820.9c-70-354.6-70-949.8,0-1302.2c251.7-1265,1124.9-2260.8,2335.2-2670c383-129.1,645.6-168.5,1105.2-168.5c334.8-2.2,446.5,6.6,650,48.2c444.3,89.7,882,269.2,1267.2,518.7l177.3,113.8l24.1-89.7c21.9-78.8,234.2-297.6,1672.1-1735.5C9173.7-4905.7,9070.9-4816,9278.8-4776.6c65.7,10.9,129.1,61.3,337,269.2c207.9,207.9,258.2,271.4,269.2,339.2c39.4,205.7,129.1,102.9-1658.9,1893.1C6788.2-837.2,6569.4-624.9,6490.6-603l-89.7,24.1l113.8,177.3c253.9,391.8,444.3,864.5,527.4,1315.3c61.3,321.7,56.9,921.4-8.7,1247.5C6751,3590.3,5669.9,4675.8,4256.1,4951.5C4026.3,4997.5,3463.8,5025.9,3253.7,5004.1z M4221,4603.6c464-100.7,888.5-293.3,1258.4-571.2c632.5-474.9,1046.1-1140.3,1214.6-1947.8c52.5-260.4,52.5-879.8,0-1138c-135.7-660.9-418-1190.6-879.8-1652.4c-461.8-461.8-991.4-744.1-1652.4-879.8c-258.2-52.5-877.6-52.5-1138.1,0C2216.3-1417.1,1551-1003.5,1076.1-371c-573.4,763.8-768.2,1731.1-534,2661.3c203.5,816.3,757.2,1542.9,1490.4,1963.1c326.1,186,776.9,337,1155.6,389.6C3424.4,4675.8,3984.7,4653.9,4221,4603.6z M7970-2522.4l1564.8-1564.8l-170.7-168.5l-168.5-170.7L7626.4-2857.2L6055-1285.8l164.1,164.1c89.7,89.7,168.5,164.1,175.1,164.1S7109.9-1662.3,7970-2522.4z"/><path d="M3286.5,4303.7c-645.6-83.2-1223.4-363.3-1672-814.1c-393.9-398.3-650-871.1-770.4-1426.9c-56.9-260.4-56.9-833.9,0-1094.3c159.8-739.7,586.5-1370,1205.9-1788.1c275.8-186,641.2-337,995.8-413.6c260.4-56.9,833.8-56.9,1094.3,0C5260.6-992.6,6101-152.2,6341.7,968.4c56.9,260.4,56.9,833.8,0,1094.3c-76.6,354.6-227.6,720-413.6,995.8c-122.6,181.6-168.5,236.4-372.1,444.3c-363.3,369.9-838.2,630.3-1372.2,750.7C4002.2,4295,3459.4,4325.6,3286.5,4303.7z M3910.3,3944.8c547.1-78.8,1026.4-317.3,1411.6-700.3c750.7-752.9,932.3-1860.3,459.6-2812.3C5532-69,5177.5-423.6,4676.3-673c-952-472.7-2059.4-291.1-2812.3,459.6c-960.8,960.8-960.8,2497.1,0,3457.9C2404.5,3785,3174.9,4047.7,3910.3,3944.8z"/></g></g>
</svg>