<?xml version="1.0" encoding="utf-8"?>
<!-- Svg Vector Icons : http://www.onlinewebfonts.com/icon -->
<!DOCTYPE svg PUBLIC "-//W3C//DTD SVG 1.1//EN" "http://www.w3.org/Graphics/SVG/1.1/DTD/svg11.dtd">
<svg version="1.1" xmlns="http://www.w3.org/2000/svg" xmlns:xlink="http://www.w3.org/1999/xlink" x="0px" y="0px" viewBox="0 0 1000 1000" enable-background="new 0 0 1000 1000" xml:space="preserve">
<metadata> Svg Vector Icons : http://www.onlinewebfonts.com/icon </metadata>
<g><g transform="translate(0.000000,511.000000) scale(0.100000,-0.100000)"><path d="M4607,4987.3c-352.2-44.8-806.8-198.5-1126.9-379.9c-456.7-262.5-885.7-691.5-1148.3-1148.3c-576.3-1009.5-529.3-2185.5,162.2-3899.4c501.6-1246.4,1372.4-2781,2322.1-4095.7l183.6-254l162.2,222c226.3,303.1,708.6,1026.6,954,1425.7c1047.9,1707.5,1683.9,3178,1897.4,4386c68.3,386.3,70.4,990.3,2.1,1295.5c-198.5,907.1-747,1654.1-1530.3,2085.2C5915.4,4938.2,5251.6,5066.2,4607,4987.3z M5578.1,4607.4C6705,4351.2,7537.4,3454.8,7703.9,2321.5C7853.3,1301.3,7390.2-182,6318.7-2117.8C5928.2-2820,5059.5-4188.1,5001.9-4188.1c-36.3,0-569.9,806.8-939.1,1419.3C3100.2-1170.2,2500.5,240.6,2321.2,1329.1c-53.4,326.5-53.4,892.1,0,1141.9c117.4,542.1,367.1,1003.1,751.3,1391.6c437.5,439.7,1001,712.9,1630.6,794C4871.7,4677.8,5401,4647.9,5578.1,4607.4z"/><path d="M4720.1,3623.4c-633.9-115.3-1141.9-559.2-1344.6-1173.9c-61.9-185.7-66.2-228.4-68.3-490.9c-2.1-298.8,14.9-403.4,115.3-665.9c140.9-379.9,554.9-794,934.8-934.8c254-96,369.2-117.4,644.6-117.4c482.4,0,870.8,160.1,1203.8,493c332.9,332.9,493,721.4,493,1203.8c0,371.4-76.8,636-264.7,922c-241.2,369.2-584.8,614.7-1026.6,736.3C5268.7,3632,4863.2,3651.2,4720.1,3623.4z M5290,3271.3c508-106.7,939.1-537.9,1045.8-1045.8c202.8-969-653.1-1824.8-1622.1-1622.1c-388.4,81.1-751.3,362.8-926.3,715c-200.6,409.8-200.6,828.1,0,1237.9C4056.4,3100.5,4681.7,3399.3,5290,3271.3z"/></g></g>
</svg>