<?xml version="1.0" encoding="utf-8"?>
<!-- Svg Vector Icons : http://www.onlinewebfonts.com/icon -->
<!DOCTYPE svg PUBLIC "-//W3C//DTD SVG 1.1//EN" "http://www.w3.org/Graphics/SVG/1.1/DTD/svg11.dtd">
<svg version="1.1" xmlns="http://www.w3.org/2000/svg" xmlns:xlink="http://www.w3.org/1999/xlink" x="0px" y="0px" viewBox="0 0 1000 1000" enable-background="new 0 0 1000 1000" xml:space="preserve">
<metadata> Svg Vector Icons : http://www.onlinewebfonts.com/icon </metadata>
<g><g transform="translate(0.000000,511.000000) scale(0.100000,-0.100000)"><path d="M968.4,2860.8C180.9,2071.2,100,1983.7,100,1920.2c0-96.3,83.1-179.4,179.4-179.4c63.4,0,142.2,72.2,820.3,748.1l750.3,748.1l400.3-398.1c354.4-352.2,409.1-398.1,472.5-398.1c94.1,0,177.2,83.1,177.2,179.4c0,63.4-54.7,124.7-518.4,590.6c-286.6,286.6-525,520.6-531.6,520.6S1447.5,3339.9,968.4,2860.8z"/><path d="M6743.4,3035.8C6441.6,2731.8,6400,2681.5,6400,2618c0-94.1,83.1-177.2,177.2-177.2c59.1,0,105,35,297.5,223.1l227.5,223.1l697.8-697.8l700-700l700,700c632.2,634.4,700,708.7,700,772.2c0,96.3-83.1,179.4-179.4,179.4c-63.4,0-129.1-59.1-645.3-573.1L8500,1992.4L7804.4,2688c-380.6,380.6-700,693.4-704.4,693.4C7093.4,3381.5,6931.6,3226.2,6743.4,3035.8z"/><path d="M4275.9,2758c-426.6-80.9-789.7-275.6-1104.7-588.4c-433.1-433.1-645.3-975.6-614.7-1577.2c48.1-942.8,693.4-1717.2,1625.3-1951.2c111.6-28.4,238.4-37.2,479.1-37.2c380.6,2.2,560,39.4,861.9,183.8c100.6,48.1,185.9,85.3,188.1,83.1c2.2-4.4,15.3-37.2,30.6-74.4c15.3-37.2,492.2-531.6,1135.3-1172.5C8080-3577,8029.7-3535.4,8230.9-3498.2c67.8,10.9,131.3,61.3,339.1,269.1s258.1,271.2,269.1,336.9c37.2,203.4,78.7,153.1-1122.2,1356.3C7075.9-892.9,6581.6-416,6544.4-400.7c-37.2,15.3-70,28.4-74.4,30.6c-2.2,2.2,35,87.5,83.1,188.1c144.4,301.9,181.6,481.3,183.8,861.9c0,240.6-8.8,367.5-37.2,479.1c-196.9,780.9-772.2,1367.2-1544.4,1568.4C4934.4,2786.5,4503.4,2801.8,4275.9,2758z M5065.6,2390.5c452.8-124.7,805-376.3,1052.2-754.7c192.5-293.1,271.3-564.4,271.3-945c0-494.4-164.1-892.5-505.3-1233.8c-341.3-341.3-739.4-505.3-1233.8-505.3c-494.4,0-892.5,164.1-1233.7,505.3C2939.4-66,2784.1,603.3,3000.6,1261.8c192.5,586.2,710.9,1028.1,1354.1,1155C4501.3,2445.2,4916.9,2429.9,5065.6,2390.5z M7450-1770.1l1039.1-1039.1l-170.6-168.4L8150-3148.2L7106.6-2104.8L6060.9-1059.2L6225-895.1c89.7,89.7,168.4,164.1,175,164.1S6879.1-1199.2,7450-1770.1z"/><path d="M3589.1,1740.8l-240.6-240.6l306.3-306.3l304.1-306.3l2.2-190.3c2.2-225.3,52.5-354.4,196.9-498.7C4300,54.3,4431.2,1.8,4650,1.8s350,52.5,492.2,196.9c144.4,144.4,194.7,273.4,196.9,498.7l2.2,190.3l304.1,306.3l306.3,306.3l-247.2,245l-245,247.2l-306.3-306.3l-304.1-304.1l-199.1-2.2h-196.9l-299.7,299.7c-166.2,166.2-306.3,301.9-312.8,301.9C3834.1,1981.5,3720.3,1872.1,3589.1,1740.8z M4787.8,1010.2c225.3-94.1,280-387.2,105-562.2c-142.2-142.2-343.4-142.2-485.6,0C4135.9,717.1,4435.6,1159,4787.8,1010.2z"/></g></g>
</svg>