<?xml version="1.0" encoding="utf-8"?>
<!-- Svg Vector Icons : http://www.onlinewebfonts.com/icon -->
<!DOCTYPE svg PUBLIC "-//W3C//DTD SVG 1.1//EN" "http://www.w3.org/Graphics/SVG/1.1/DTD/svg11.dtd">
<svg version="1.1" xmlns="http://www.w3.org/2000/svg" xmlns:xlink="http://www.w3.org/1999/xlink" x="0px" y="0px" viewBox="0 0 1000 1000" enable-background="new 0 0 1000 1000" xml:space="preserve">
<metadata> Svg Vector Icons : http://www.onlinewebfonts.com/icon </metadata>
<g><g transform="translate(0.000000,512.000000) scale(0.100000,-0.100000)"><path d="M3629.5,2386.3c-256.5-42.1-543.6-187.6-765.6-390.5c-95.7-88.1-758-888.1-1470-1776.3L100-1399.7v-382.8v-382.8h4900h4900v673.8v669.9l-275.6,409.6c-379,562.8-719.7,899.6-964.7,960.9C8296,640.7,8154.4,564.1,7495.9-56c-279.4-264.2-524.5-482.4-539.8-482.4c-19.1,0-447.9,528.3-957,1175.3c-509.1,646.9-987.6,1240.3-1068,1316.9C4571.2,2305.9,4100.4,2462.9,3629.5,2386.3z"/></g></g>
</svg>