<?xml version="1.0" encoding="utf-8"?>
<!-- Svg Vector Icons : http://www.onlinewebfonts.com/icon -->
<!DOCTYPE svg PUBLIC "-//W3C//DTD SVG 1.1//EN" "http://www.w3.org/Graphics/SVG/1.1/DTD/svg11.dtd">
<svg version="1.1" xmlns="http://www.w3.org/2000/svg" xmlns:xlink="http://www.w3.org/1999/xlink" x="0px" y="0px" viewBox="0 0 1000 1000" enable-background="new 0 0 1000 1000" xml:space="preserve">
<metadata> Svg Vector Icons : http://www.onlinewebfonts.com/icon </metadata>
<g><g transform="translate(0.000000,511.000000) scale(0.100000,-0.100000)"><path d="M1579.5,4971.4c-165.6-81.7-231.4-224.6-231.4-508.1v-170.1l-118-31.8c-217.8-54.4-403.8-294.9-403.8-521.8c0-247.3,192.8-476.4,449.2-533.1l72.6-15.9V3016v-174.7l-118-31.8c-90.7-22.7-145.2-56.7-233.7-145.2c-213.2-215.5-229.1-496.8-36.3-719.1c77.1-90.7,267.7-201.9,349.3-201.9c34,0,38.6-22.7,38.6-176.9v-176.9l-118-31.8c-217.8-54.4-403.8-294.9-403.8-521.8c0-247.3,192.8-476.4,449.2-533.1l72.6-15.9V112.3V-62.4l-118-31.8c-217.8-54.5-403.8-294.9-403.8-521.8c0-226.8,186-467.3,403.8-521.8l118-31.8v-172.4v-172.4l-118-31.8c-217.8-54.5-403.8-294.9-403.8-521.8c0-226.9,186-467.3,403.8-521.8l118-31.8v-172.4v-172.4l-118-31.8c-217.8-54.5-403.8-294.9-403.8-521.8c0-224.6,186-467.3,401.5-521.8l115.7-29.5l9.1-217.8c11.3-249.5,43.1-328.9,170.1-426.5l81.7-63.5l3634.2-6.8l3634.2-4.6l97.5,52.2c68.1,36.3,115.7,83.9,152,152l52.2,97.5V110v4598.3l-52.2,97.5c-36.3,68.1-83.9,115.7-152,152l-97.5,52.2H5263.6C1987.9,5010,1647.6,5005.5,1579.5,4971.4z M2641.2,110v-4537l-458.2,4.6l-460.5,6.8l-6.8,172.4l-6.8,174.7l170.1,9.1c181.5,9.1,249.5,40.8,340.3,163.3c43.1,56.7,47.6,95.3,47.6,376.6s-4.5,319.8-47.6,376.6c-90.7,122.5-158.8,154.3-340.3,163.3l-167.9,9.1v176.9v176.9l167.9,9.1c181.5,9.1,249.5,40.8,340.3,163.3c43.1,56.7,47.6,95.3,47.6,376.6s-4.5,319.8-47.6,376.6c-90.7,122.5-158.8,154.3-340.3,163.3l-167.9,9.1v176.9v176.9l167.9,9.1c181.5,9.1,249.5,40.8,340.3,163.3c43.1,56.7,47.6,95.3,47.6,376.6s-4.5,319.9-47.6,376.6C2128.5-116.9,2060.5-85.1,1879-76l-167.9,9.1V110v176.9L1879,296c181.5,9.1,249.5,40.8,340.3,163.3c43.1,56.7,47.6,95.3,47.6,376.6c0,281.3-4.5,319.9-47.6,376.6c-90.7,122.5-158.8,154.3-340.3,163.3l-167.9,9.1v176.9v176.9l167.9,9.1c181.5,9.1,249.5,40.8,340.3,163.3c43.1,56.7,47.6,95.3,47.6,376.6c0,281.3-4.5,319.9-47.6,376.6c-90.7,122.5-158.8,154.3-340.3,163.3l-167.9,9.1v176.9v176.9l167.9,9.1c181.5,9.1,249.5,40.8,340.3,163.3c43.1,56.7,47.6,95.3,47.6,376.6s-4.5,319.9-47.6,376.6c-90.7,122.5-158.8,154.3-340.3,163.3l-167.9,9.1v163.3c0,90.7,6.8,172.4,15.9,179.2c6.8,9.1,217.8,15.9,465,15.9h449.2V110z M8811.6,110v-4537H5907.9H3004.2V110v4537h2903.7h2903.7V110z M1915.3,3739.6v-181.5H1609c-297.2,0-310.8,2.3-363,56.7c-36.3,34-56.7,81.7-56.7,124.8c0,43.1,20.4,90.7,56.7,124.8c52.2,54.4,65.8,56.7,363,56.7h306.3V3739.6z M1915.3,2287.8v-181.5H1609c-297.2,0-310.8,2.3-363,56.7c-36.3,34-56.7,81.7-56.7,124.8s20.4,90.7,56.7,124.8c52.2,54.4,65.8,56.7,363,56.7h306.3V2287.8z M1915.3,835.9V654.4H1609c-297.2,0-310.8,2.3-363,56.7c-36.3,34-56.7,81.7-56.7,124.8c0,43.1,20.4,90.7,56.7,124.8c52.2,54.4,65.8,56.7,363,56.7h306.3V835.9z M1915.3-615.9v-181.5H1609c-297.2,0-310.8,2.2-363,56.7c-36.3,34-56.7,81.6-56.7,124.7c0,43.1,20.4,90.7,56.7,124.8c52.2,54.5,65.8,56.7,363,56.7h306.3V-615.9z M1915.3-2067.8v-181.5H1609c-297.2,0-310.8,2.2-363,56.7c-36.3,34-56.7,81.7-56.7,124.8c0,43.1,20.4,90.7,56.7,124.8c52.2,54.5,65.8,56.7,363,56.7h306.3V-2067.8z M1915.3-3519.6v-181.5H1609c-297.2,0-310.8,2.3-363,56.7c-36.3,34-56.7,81.7-56.7,124.8s20.4,90.7,56.7,124.8c52.2,54.5,65.8,56.7,363,56.7h306.3V-3519.6z"/><path d="M3786.8,1686.6c-113.4-111.2-34-306.3,124.8-306.3c93,0,181.5,88.5,181.5,181.5c0,93-88.5,181.5-181.5,181.5C3868.5,1743.3,3820.8,1722.9,3786.8,1686.6z"/><path d="M4512.7,1686.6c-36.3-34-56.7-81.7-56.7-124.8c0-43.1,20.4-90.7,56.7-124.8l54.4-56.7h1703.7h1703.6l54.5,56.7c74.9,72.6,74.9,176.9,0,249.5l-54.5,56.7H6270.8H4567.2L4512.7,1686.6z"/><path d="M3786.8,234.8c-113.4-111.2-34-306.3,124.8-306.3c93,0,181.5,88.5,181.5,181.5c0,93-88.5,181.5-181.5,181.5C3868.5,291.5,3820.8,271.1,3786.8,234.8z"/><path d="M4512.7,234.8c-36.3-34-56.7-81.7-56.7-124.8c0-43.1,20.4-90.7,56.7-124.8l54.4-56.7h1703.7h1703.6l54.5,56.7c74.9,72.6,74.9,177,0,249.6l-54.5,56.7H6270.8H4567.2L4512.7,234.8z"/><path d="M3786.8-1217.1c-113.4-111.2-34-306.3,124.8-306.3c43.1,0,90.7,20.4,124.8,56.7c36.3,34,56.7,81.7,56.7,124.8s-20.4,90.7-56.7,124.8c-34,36.3-81.7,56.7-124.8,56.7S3820.8-1180.8,3786.8-1217.1z"/><path d="M4512.7-1217.1c-36.3-34-56.7-81.7-56.7-124.8s20.4-90.7,56.7-124.8l54.4-56.7h1703.7h1703.6l54.5,56.7c74.9,72.6,74.9,176.9,0,249.5l-54.5,56.7H6270.8H4567.2L4512.7-1217.1z"/></g></g>
</svg>