<?xml version="1.0" encoding="utf-8"?>
<!-- Svg Vector Icons : http://www.onlinewebfonts.com/icon -->
<!DOCTYPE svg PUBLIC "-//W3C//DTD SVG 1.1//EN" "http://www.w3.org/Graphics/SVG/1.1/DTD/svg11.dtd">
<svg version="1.1" xmlns="http://www.w3.org/2000/svg" xmlns:xlink="http://www.w3.org/1999/xlink" x="0px" y="0px" viewBox="0 0 1000 1000" enable-background="new 0 0 1000 1000" xml:space="preserve">
<metadata> Svg Vector Icons : http://www.onlinewebfonts.com/icon </metadata>
<g><g transform="translate(0.000000,511.000000) scale(0.100000,-0.100000)"><path d="M7426.2,4975.1c-420-74.4-789.7-271.3-1104.7-586.3c-588.5-590.6-774.4-1421.9-490-2207.3c199.1-549.1,691.3-1041.3,1240.4-1240.4c785.3-284.4,1616.6-98.4,2207.3,490c588.5,590.6,774.4,1421.9,490,2207.3c-199.1,549.1-691.3,1041.3-1240.4,1240.4C8176.5,5005.7,7780.6,5040.8,7426.2,4975.1z"/><path d="M3600.1,3936C1692.5,3804.8,802.2,3266.6,384.4,1993.5C194.1,1409.4,100,619.7,100-415.1c0-2266.3,431-3368.9,1531.3-3917.9c665-330.3,1701.9-481.3,3128.2-450.7c684.7,15.3,962.5,37.2,1443.8,115.9c746,122.5,1299.4,363.2,1695.4,735c682.5,638.8,977.9,1787.2,947.2,3701.4l-6.6,542.5l-61.3,52.5c-74.4,63.4-175,67.8-234.1,8.7c-24.1-24.1-43.8-50.3-43.8-59.1c0-10.9-4.4-376.3-8.8-816c-8.7-984.4-48.1-1397.9-179.4-1944.8c-122.5-514.1-310.6-872.8-621.3-1183.5c-376.3-376.3-813.8-573.1-1557.6-697.9c-457.2-78.7-829.1-100.6-1658.2-100.6c-829.1,0-1201,21.9-1662.6,100.6C1460.7-4101.1,835-3503.9,583.5-2200.1c-98.4,501-120.3,846.6-120.3,1785.1c0,938.5,24.1,1288.5,120.3,1785.1c242.8,1266.6,840,1863.8,2104.4,2106.6c457.2,87.5,842.2,115.9,1688.8,124.7c446.3,4.4,816,8.8,826.9,8.8c8.8,0,35,19.7,59.1,43.8c63.4,63.4,56.9,177.2-13.1,242.8l-56.9,52.5l-658.5,2.2C4171.1,3953.5,3751.1,3947,3600.1,3936z"/></g></g>
</svg>