<?xml version="1.0" encoding="utf-8"?>
<!-- Svg Vector Icons : http://www.onlinewebfonts.com/icon -->
<!DOCTYPE svg PUBLIC "-//W3C//DTD SVG 1.1//EN" "http://www.w3.org/Graphics/SVG/1.1/DTD/svg11.dtd">
<svg version="1.1" xmlns="http://www.w3.org/2000/svg" xmlns:xlink="http://www.w3.org/1999/xlink" x="0px" y="0px" viewBox="0 0 1000 1000" enable-background="new 0 0 1000 1000" xml:space="preserve">
<metadata> Svg Vector Icons : http://www.onlinewebfonts.com/icon </metadata>
<g><path d="M714.4,224.4c16.9,0,30.6-13.7,30.6-30.6v-50.5C745,70,685,10,611.7,10H143.3C70,10,10,70,10,143.3v713.4C10,930,70,990,143.3,990h468.3C685,990,745,930,745,856.7v-50.4c0-16.9-13.7-30.6-30.6-30.6c-16.9,0-30.6,13.7-30.6,30.6v39.2c0,45.8-37.5,83.3-83.3,83.3H154.6c-45.8,0-83.3-37.5-83.3-83.3V154.6c0-45.8,37.5-83.3,83.3-83.3h445.8c45.8,0,83.3,37.5,83.3,83.3v39.2C683.8,210.7,697.5,224.4,714.4,224.4L714.4,224.4z"/><path d="M981,480.6L764.5,264c-12-12-31.3-12-43.3,0c-12,12-12,31.4,0,43.3l162.1,162.1H343.4c-16.9,0-30.6,13.7-30.6,30.6c0,16.9,13.7,30.6,30.6,30.6h544.2L721.2,697.1c-12,12-12,31.4,0,43.3c12,12,31.3,12,43.3,0L981,523.9C993,511.9,993,492.5,981,480.6L981,480.6z"/></g>
</svg>