<?xml version="1.0" encoding="utf-8"?>
<!-- Svg Vector Icons : http://www.onlinewebfonts.com/icon -->
<!DOCTYPE svg PUBLIC "-//W3C//DTD SVG 1.1//EN" "http://www.w3.org/Graphics/SVG/1.1/DTD/svg11.dtd">
<svg version="1.1" xmlns="http://www.w3.org/2000/svg" xmlns:xlink="http://www.w3.org/1999/xlink" x="0px" y="0px" viewBox="0 0 1000 1000" enable-background="new 0 0 1000 1000" xml:space="preserve">
<metadata> Svg Vector Icons : http://www.onlinewebfonts.com/icon </metadata>
<g><path d="M979.1,239.4L402.3,825.7c-14.5,14.7-38,14.7-52.4,0l-11.6-11.8l0,0l-12.6-12.9l-54.4-55.3c-0.3-0.4-0.5-0.9-0.8-1.2L20.9,489.1c-14.5-14.7-14.5-38.6,0-53.3L31.4,424c14.5-14.7,38-14.7,52.4,0l292.5,297.8l539.8-547.5c14.5-14.7,38-14.7,52.4,0l10.6,11.9C993.6,200.9,993.6,224.7,979.1,239.4z"/></g>
</svg>