<?xml version="1.0" encoding="utf-8"?>
<!-- Svg Vector Icons : http://www.onlinewebfonts.com/icon -->
<!DOCTYPE svg PUBLIC "-//W3C//DTD SVG 1.1//EN" "http://www.w3.org/Graphics/SVG/1.1/DTD/svg11.dtd">
<svg version="1.1" xmlns="http://www.w3.org/2000/svg" xmlns:xlink="http://www.w3.org/1999/xlink" x="0px" y="0px" viewBox="0 0 1000 1000" enable-background="new 0 0 1000 1000" xml:space="preserve">
<metadata> Svg Vector Icons : http://www.onlinewebfonts.com/icon </metadata>
<g><path d="M431.9,704.2c-13.6,0-27.2-6.8-34-13.6L227.8,513.6c-20.4-20.4-20.4-54.4,0-74.9c20.4-20.4,54.4-20.4,74.9,0l136.1,136.1l265.4-265.4c20.4-20.4,54.4-20.4,74.9,0c20.4,20.4,20.4,54.4,0,74.9L479.6,683.8C459.2,697.4,445.6,704.2,431.9,704.2z"/><path d="M500,990C227.8,990,10,772.2,10,500C10,227.8,227.8,10,500,10c272.2,0,490,217.8,490,490C990,772.2,765.4,990,500,990z M500,112.1C289,112.1,112.1,289,112.1,500c0,211,170.1,387.9,387.9,387.9c211,0,387.9-170.1,387.9-387.9C887.9,282.2,711,112.1,500,112.1z"/></g>
</svg>