<?xml version="1.0" encoding="utf-8"?>
<!-- Svg Vector Icons : http://www.onlinewebfonts.com/icon -->
<!DOCTYPE svg PUBLIC "-//W3C//DTD SVG 1.1//EN" "http://www.w3.org/Graphics/SVG/1.1/DTD/svg11.dtd">
<svg version="1.1" xmlns="http://www.w3.org/2000/svg" xmlns:xlink="http://www.w3.org/1999/xlink" x="0px" y="0px" viewBox="0 0 1000 1000" enable-background="new 0 0 1000 1000" xml:space="preserve">
<metadata> Svg Vector Icons : http://www.onlinewebfonts.com/icon </metadata>
<g><path d="M10,488.9c22.9,0,41.5,18.3,41.5,40.8S32.9,570.6,10,570.6V488.9z"/><path d="M977.3,231.5c-16.9-18.4-44.2-18.4-61.1,0L515.7,669.8L318.2,466.2c-17.1-17.6-44.7-17.6-61.7,0c-17.1,17.6-17.1,46,0,63.6l226.9,233.7c1.1,1.6,1.7,3.6,3.1,5.1c8.8,9.6,20.4,14,31.9,13.6c11.7,0.4,23.5-3.7,32.4-12.9c4.1-4.2,7-9.1,9.1-14.2l417.4-456.8C994.2,280,994.2,250,977.3,231.5L977.3,231.5z"/></g>
</svg>