<?xml version="1.0" encoding="utf-8"?>
<!-- Svg Vector Icons : http://www.onlinewebfonts.com/icon -->
<!DOCTYPE svg PUBLIC "-//W3C//DTD SVG 1.1//EN" "http://www.w3.org/Graphics/SVG/1.1/DTD/svg11.dtd">
<svg version="1.1" xmlns="http://www.w3.org/2000/svg" xmlns:xlink="http://www.w3.org/1999/xlink" x="0px" y="0px" viewBox="0 0 1000 1000" enable-background="new 0 0 1000 1000" xml:space="preserve">
<metadata> Svg Vector Icons : http://www.onlinewebfonts.com/icon </metadata>
<g><g transform="translate(0.000000,511.000000) scale(0.100000,-0.100000)"><path d="M1188.6,4800.9c-43.1-13.6-131.6-77.1-192.8-140.6c-161.1-158.8-206.4-328.9-142.9-542.2c36.3-124.8,224.6-313.1,349.3-349.3c213.2-63.5,383.4-18.2,542.2,142.9c231.4,229.1,231.4,519.5,0,748.6C1585.6,4821.3,1399.6,4866.6,1188.6,4800.9z M1494.9,4410.7c113.4-111.2,34-306.2-124.8-306.2c-93,0-181.5,88.5-181.5,181.5c0,93,88.5,181.5,181.5,181.5C1413.2,4467.4,1460.9,4447,1494.9,4410.7z"/><path d="M4818.2,4800.9c-111.2-36.3-301.7-231.4-335.7-347.1c-63.5-213.2-18.2-383.4,142.9-542.2c115.7-118,231.4-170.1,374.3-170.1c281.3,0,544.4,263.1,544.4,544.4c0,142.9-52.2,258.6-170.1,374.3C5215.2,4821.3,5029.2,4866.6,4818.2,4800.9z M5124.5,4410.7c113.4-111.2,34-306.2-124.8-306.2c-93,0-181.5,88.5-181.5,181.5c0,93,88.5,181.5,181.5,181.5C5042.8,4467.4,5090.4,4447,5124.5,4410.7z"/><path d="M8447.8,4800.9c-111.2-36.3-301.7-231.4-335.7-347.1c-63.5-213.2-18.1-383.4,142.9-542.2c115.7-118,231.4-170.1,374.3-170.1c281.3,0,544.4,263.1,544.4,544.4c0,142.9-52.2,258.6-170.1,374.3C8844.8,4821.3,8658.7,4866.6,8447.8,4800.9z M8754,4410.7c36.3-34,56.7-81.7,56.7-124.8c0-43.1-20.4-90.7-56.7-124.8c-34-36.3-81.7-56.7-124.8-56.7c-43.1,0-90.7,20.4-124.8,56.7c-36.3,34-56.7,81.7-56.7,124.8c0,43.1,20.4,90.7,56.7,124.8c34,36.3,81.7,56.7,124.8,56.7C8672.4,4467.4,8720,4447,8754,4410.7z"/><path d="M1188.6,2986.1c-111.2-36.3-301.7-231.4-335.7-347.1c-20.4-70.3-27.2-460.5-27.2-1492.7V-251.1H694.1c-183.8,0-319.9-52.2-431-165.6C49.9-634.4,45.3-929.3,251.8-1158.4c115.7-129.3,245-181.5,442.4-181.5h131.6v-1397.4c0-1032.2,6.8-1422.3,27.2-1492.7c59-195.1,308.5-376.6,517.2-376.6c208.7,0,458.2,181.5,517.2,376.6c20.4,70.3,27.2,460.5,27.2,1492.7v1397.4h127c70.3,0,170.1,11.3,222.3,27.2c124.8,36.3,313.1,224.6,349.3,349.4c63.5,213.2,18.2,383.4-142.9,542.1c-127,129.3-231.4,170.1-428.7,170.1h-127v1397.4c0,1032.2-6.8,1422.3-27.2,1492.7c-36.3,124.8-224.6,313.1-349.3,349.3C1426.8,3020.1,1297.5,3020.1,1188.6,2986.1z M1494.9,2595.9l56.7-54.4V1144.1V-251.1h-181.5h-181.5v1395.1v1397.4l56.7,54.4c34,36.3,81.7,56.7,124.8,56.7C1413.2,2652.6,1460.9,2632.2,1494.9,2595.9z M2220.8-670.7c36.3-34,56.7-81.7,56.7-124.8c0-43.1-20.4-90.7-56.7-124.8l-54.4-56.7h-796.2H573.9l-54.4,56.7c-36.3,34-56.7,81.7-56.7,124.8c0,43.1,20.4,90.7,56.7,124.8l54.4,56.7h796.2h796.2L2220.8-670.7z M1551.6-2735v-1397.4l-56.7-54.5c-34-36.3-81.7-56.7-124.8-56.7c-43.1,0-90.7,20.4-124.8,56.7l-56.7,54.5V-2735v1395.1h181.5h181.5V-2735z"/><path d="M4818.2,2986.1c-111.2-36.3-301.7-231.4-335.7-347.1c-15.9-54.4-27.2-226.9-27.2-403.8v-308.5h-127c-197.4,0-301.7-40.8-428.7-170.1c-231.4-229.1-231.4-519.5,0-748.6c127-129.3,231.4-170.1,428.7-170.1h127v-2486.2c0-1887.4,6.8-2511.2,27.2-2581.6c59-195.1,308.5-376.6,517.2-376.6c208.7,0,458.2,181.5,517.2,376.6c20.4,70.3,27.2,694.2,27.2,2581.6V837.8h127c197.4,0,301.7,40.8,428.8,170.1c231.4,229.1,231.4,519.5,0,748.6c-127,129.3-231.4,170.1-428.8,170.1h-127v308.5c0,385.6-20.4,462.8-170.1,610.2C5215.2,3006.5,5029.2,3051.9,4818.2,2986.1z M5124.5,2595.9c54.4-52.2,56.7-65.8,56.7-363v-306.2h-181.5h-181.5v306.2c0,297.2,2.3,310.8,56.7,363c34,36.3,81.7,56.7,124.8,56.7C5042.8,2652.6,5090.4,2632.2,5124.5,2595.9z M5850.4,1507c36.3-34,56.7-81.7,56.7-124.8c0-43.1-20.4-90.7-56.7-124.8l-54.5-56.7h-796.2h-796.2l-54.4,56.7c-36.3,34-56.7,81.7-56.7,124.8c0,43.1,20.4,90.7,56.7,124.8l54.4,56.7h796.2h796.2L5850.4,1507z M5181.2-1646.2v-2486.2l-56.7-54.5c-72.6-74.9-176.9-74.9-249.5,0l-56.7,54.5v2486.2v2484h181.5h181.5V-1646.2z"/><path d="M8447.8,2986.1c-111.2-36.3-301.7-231.4-335.7-347.1c-20.4-70.3-27.2-694.2-27.2-2581.5v-2486.3H7951c-179.2,0-310.8-49.9-426.5-163.3c-226.9-222.3-217.8-562.6,15.9-773.5c124.8-111.2,233.7-152,417.4-152h127v-308.5c0-385.6,20.4-462.8,170.1-610.2c229.1-231.4,519.5-231.4,748.6,0c149.7,147.5,170.1,224.6,170.1,610.2v308.5h127c70.3,0,170.1,11.3,222.3,27.2c124.8,36.3,313,224.6,349.3,349.3c63.5,213.3,18.1,383.4-142.9,542.2c-127,129.3-231.4,170.1-428.8,170.1h-127V57.5c0,1887.4-6.8,2511.2-27.2,2581.5c-36.3,124.8-224.6,313.1-349.3,349.3C8686,3020.1,8556.7,3020.1,8447.8,2986.1z M8754,2595.9l56.7-54.4V55.2v-2484h-181.5h-181.5v2484v2486.3l56.7,54.4c34,36.3,81.7,56.7,124.8,56.7C8672.4,2652.6,8720,2632.2,8754,2595.9z M9480-2848.5c36.3-34,56.7-81.7,56.7-124.8c0-43.1-20.4-90.7-56.7-124.8l-54.5-56.7h-796.2H7833l-54.5,56.7c-36.3,34-56.7,81.7-56.7,124.8c0,43.1,20.4,90.7,56.7,124.8l54.5,56.7h796.2h796.2L9480-2848.5z M8810.7-3823.9c0-297.2-2.3-310.8-56.7-363c-34-36.3-81.7-56.7-124.8-56.7c-43.1,0-90.7,20.4-124.8,56.7c-54.5,52.2-56.7,65.8-56.7,363v306.3h181.5h181.5V-3823.9z"/></g></g>
</svg>