<?xml version="1.0" encoding="utf-8"?>
<!-- Svg Vector Icons : http://www.onlinewebfonts.com/icon -->
<!DOCTYPE svg PUBLIC "-//W3C//DTD SVG 1.1//EN" "http://www.w3.org/Graphics/SVG/1.1/DTD/svg11.dtd">
<svg version="1.1" xmlns="http://www.w3.org/2000/svg" xmlns:xlink="http://www.w3.org/1999/xlink" x="0px" y="0px" viewBox="0 0 1000 1000" enable-background="new 0 0 1000 1000" xml:space="preserve">
<metadata> Svg Vector Icons : http://www.onlinewebfonts.com/icon </metadata>
<g><g transform="translate(0.000000,511.000000) scale(0.100000,-0.100000)"><path d="M4857.5,4814.4c-37.3-15.4-92.1-59.2-120.6-94.3c-37.3-43.8-214.9-537.1-559.1-1547.8l-504.2-1482.1l-1681.6-6.6c-1657.4-6.6-1681.6-6.6-1740.8-52.6c-114-85.5-151.3-155.7-151.3-291.6c0-83.3,13.2-144.7,39.5-184.2c21.9-32.9,635.8-506.4,1365.9-1052.3C2722.1-806.9,2829.5-892.4,2820.8-942.8c-6.6-30.7-228-782.7-493.3-1668.4C2060-3499.1,1843-4251.1,1843-4284c0-210.5,208.3-372.7,425.3-333.2c52.6,11,460.4,309.1,1394.4,1021.7C4388.3-3040.9,4989-2587.1,5000-2587.1c8.8,0,611.7-453.8,1337.4-1008.5c933.9-712.5,1341.7-1010.7,1394.4-1021.7c217.1-39.5,425.3,122.8,425.3,333.2c0,32.9-217.1,784.9-484.5,1672.8c-265.3,885.7-486.7,1637.7-493.3,1668.4c-8.8,50.4,98.7,135.9,1315.4,1045.8c730.1,545.9,1343.9,1019.5,1365.8,1052.3c26.3,39.5,39.5,100.8,39.5,184.2c0,135.9-37.3,206.1-151.3,291.6c-59.2,46-83.3,46-1740.8,52.6l-1681.6,4.4l-504.2,1484.3c-342,1008.5-521.8,1504-559.1,1547.8C5166.6,4836.4,4997.8,4875.8,4857.5,4814.4z M5436.3,3216.2c234.6-688.4,473.6-1394.4,534.9-1565.4l107.4-313.5l1734.2-4.4l1732-6.6l-1396.6-1048C6887.6-666.5,6753.9-774,6767.1-817.8c142.5-440.7,1028.2-3435.5,1015.1-3431.1c-11,4.4-633.6,475.8-1383.4,1048c-747.6,572.2-1379,1041.4-1398.8,1041.4c-19.7,0-649-469.2-1400.9-1041.4c-749.8-572.2-1370.2-1043.6-1381.2-1048c-13.2-4.4,874.8,2999.2,1015.1,3431.1c13.2,43.8-120.6,151.3-1381.2,1096.2l-1396.5,1048l1732,6.6l1734.2,4.4l131.5,379.3c70.2,206.1,311.3,912,532.8,1565.4c221.4,655.5,407.8,1190.5,414.4,1190.5S5201.7,3906.8,5436.3,3216.2z"/></g></g>
</svg>