<?xml version="1.0" encoding="utf-8"?>
<!-- Svg Vector Icons : http://www.onlinewebfonts.com/icon -->
<!DOCTYPE svg PUBLIC "-//W3C//DTD SVG 1.1//EN" "http://www.w3.org/Graphics/SVG/1.1/DTD/svg11.dtd">
<svg version="1.1" xmlns="http://www.w3.org/2000/svg" xmlns:xlink="http://www.w3.org/1999/xlink" x="0px" y="0px" viewBox="0 0 1000 1000" enable-background="new 0 0 1000 1000" xml:space="preserve">
<metadata> Svg Vector Icons : http://www.onlinewebfonts.com/icon </metadata>
<g><g transform="translate(0.000000,511.000000) scale(0.100000,-0.100000)"><path d="M3493.3,4948.7c-39.2-36.8-61.3-88.3-61.3-134.8c0-46.6,22.1-98.1,61.3-134.8c56.4-58.8,71.1-61.3,392.2-61.3h330.9v-429v-429l-66.2-14.7c-504.9-110.3-953.5-284.3-1362.9-529.5l-90.7-53.9l-326,321.1c-348.1,345.6-399.6,375-598.1,338.3c-76-12.3-147.1-68.6-379.9-301.5s-289.2-304-301.5-377.5c-36.8-196.1-4.9-254.9,306.4-571.1l291.7-294.2l-61.3-73.5c-134.8-164.2-365.2-527-490.2-774.6c-679-1358-583.4-2970.9,252.5-4262.7c1198.6-1848.2,3610.7-2488,5571.7-1480.6C9087-3221.2,9922.9-632.7,8834.5,1480.2c-220.6,426.5-438.8,723.1-794.2,1078.5c-622.6,622.6-1299.2,990.3-2186.5,1186.4l-68.6,14.7v429v429h330.9c321.1,0,335.8,2.5,392.2,61.3c39.2,36.8,61.3,88.2,61.3,134.8c0,46.6-22.1,98.1-61.3,134.8l-58.8,61.3H5000.8H3552.1L3493.3,4948.7z M5393,4225.6v-392.2h-392.2h-392.2v392.2v392.2h392.2H5393V4225.6z M5746,3367.7c1603.1-321.1,2828.7-1571.2,3118-3174.3c61.3-345.6,63.8-1014.8,0-1348.2c-301.5-1639.9-1549.2-2887.5-3189-3189c-333.4-63.8-1002.6-61.3-1348.2,0c-899.6,161.8-1745.3,647.1-2316.4,1333.4c-446.1,531.9-725.6,1117.8-862.8,1806.6c-78.4,387.3-78.4,1061.4,0,1451.1c345.6,1725.7,1728.1,2990.5,3473.4,3179.2C4846.4,3451,5508.2,3416.7,5746,3367.7z M2118.1,3174l242.7-245.1l-83.3-68.6c-46.6-36.8-137.3-117.7-201-176.5l-117.7-110.3L1721,2811.2L1483.3,3049l183.8,183.8c100.5,100.5,188.7,183.8,196.1,183.8C1870.6,3416.7,1985.8,3306.4,2118.1,3174z"/><path d="M4866,2987.7c-122.6-120.1-36.8-330.9,134.8-330.9c46.6,0,98.1,22.1,134.8,61.3c39.2,36.8,61.3,88.3,61.3,134.8c0,46.6-22.1,98.1-61.3,134.8c-36.8,39.2-88.3,61.3-134.8,61.3S4902.7,3027,4866,2987.7z"/><path d="M3248.1,2578.4c-125-71.1-147.1-205.9-49-301.5c117.7-120.1,330.9-36.8,330.9,127.5c-2.5,78.4-36.8,134.8-115.2,174C3348.7,2615.1,3311.9,2615.1,3248.1,2578.4z"/><path d="M6581.8,2578.4c-125-71.1-147.1-205.9-49-301.5c117.7-120.1,330.9-36.8,330.9,127.5c-2.4,78.4-36.8,134.8-115.2,174C6682.3,2615.1,6645.6,2615.1,6581.8,2578.4z"/><path d="M6260.7,1061.1L5250.8,51.2l-78.4,29.4c-201,68.6-406.9,14.7-576.1-156.9c-250-247.6-250-561.3,0-808.9c247.6-250,561.3-250,808.9,0c171.6,169.1,225.5,375,156.9,576l-29.4,78.4L6542.6,779.2c916.7,916.8,1007.4,1017.3,1007.4,1088.3c0,53.9-22.1,100.5-61.3,139.7c-39.2,39.2-85.8,61.3-139.7,61.3C7278,2068.5,7177.5,1977.8,6260.7,1061.1z M5135.6-345.9c122.6-120.1,36.8-330.9-134.8-330.9c-46.6,0-98,22.1-134.8,61.3c-39.2,36.8-61.3,88.2-61.3,134.8s22.1,98,61.3,134.8c36.8,39.2,88.2,61.3,134.8,61.3S5098.8-306.7,5135.6-345.9z"/><path d="M2007.8,1350.3c-107.9-83.3-115.2-218.2-17.2-311.3c115.2-107.9,313.8-14.7,313.8,147.1C2304.4,1333.2,2118.1,1436.1,2007.8,1350.3z"/><path d="M7758.4,1320.9c-171.6-169.1,76-446.1,252.5-281.9c68.6,66.2,90.7,152,51.5,225.5C7993.7,1394.4,7856.5,1421.4,7758.4,1320.9z"/><path d="M1532.3-345.9c-39.2-36.8-61.3-88.2-61.3-134.8s22.1-98,61.3-134.8c36.8-39.2,88.2-61.3,134.8-61.3c46.6,0,98,22.1,134.8,61.3c39.2,36.8,61.3,88.2,61.3,134.8s-22.1,98-61.3,134.8c-36.8,39.2-88.2,61.3-134.8,61.3C1620.5-284.7,1569.1-306.7,1532.3-345.9z"/><path d="M8199.7-345.9c-122.6-120.1-36.8-330.9,134.8-330.9c100.5,0,196.1,95.6,196.1,196.1s-95.6,196.1-196.1,196.1C8287.9-284.7,8236.4-306.7,8199.7-345.9z"/><path d="M2007.8-1983.4c-107.9-83.3-115.2-218.2-17.2-311.3c115.2-107.9,313.8-14.7,313.8,147.1C2304.4-2000.5,2118.1-1897.6,2007.8-1983.4z"/><path d="M7758.4-2012.8c-171.6-169.2,76-446.1,252.5-281.9c68.6,66.2,90.7,152,51.5,225.5C7993.7-1939.2,7856.5-1912.3,7758.4-2012.8z"/><path d="M3199.1-3238.4c-100.5-98.1-73.5-235.3,56.4-304c115.2-61.3,274.5,41.7,274.5,174.1c0,95.6-98.1,191.2-196.1,191.2C3287.4-3177.1,3235.9-3199.2,3199.1-3238.4z"/><path d="M6532.8-3238.4c-100.5-98.1-73.5-235.3,56.4-304c115.2-61.3,274.5,41.7,274.5,174.1c0,95.6-98,191.2-196.1,191.2C6621.1-3177.1,6569.6-3199.2,6532.8-3238.4z"/><path d="M4866-3679.6c-39.2-36.8-61.3-88.2-61.3-134.8s22.1-98,61.3-134.8c120.1-122.6,330.9-36.8,330.9,134.8c0,100.5-95.6,196.1-196.1,196.1C4954.2-3618.3,4902.7-3640.4,4866-3679.6z"/></g></g>
</svg>