<?xml version="1.0" encoding="utf-8"?>
<!-- Svg Vector Icons : http://www.onlinewebfonts.com/icon -->
<!DOCTYPE svg PUBLIC "-//W3C//DTD SVG 1.1//EN" "http://www.w3.org/Graphics/SVG/1.1/DTD/svg11.dtd">
<svg version="1.1" xmlns="http://www.w3.org/2000/svg" xmlns:xlink="http://www.w3.org/1999/xlink" x="0px" y="0px" viewBox="0 0 1000 1000" enable-background="new 0 0 1000 1000" xml:space="preserve">
<metadata> Svg Vector Icons : http://www.onlinewebfonts.com/icon </metadata>
<g><g transform="translate(0.000000,512.000000) scale(0.100000,-0.100000)"><path d="M1829.3,4986c-68.9-42.1-113-147.4-93.8-216.4c7.7-24.9,497.8-528.4,1087.5-1120.1l1076.1-1078H2453.5c-1593,0-1579.6,0-1807.5-118.7c-149.4-78.5-350.4-279.5-428.9-428.9C92.6,1784.6,96.5,1903.4,102.2-756.1l5.7-2406.8l46-114.9c174.2-436.6,528.5-679.7,991.8-679.7h178.1v-346.6v-346.6l65.1-65.1c46-46,82.3-65.1,126.4-65.1c67,0,162.7,47.9,185.7,93.8c7.7,17.2,19.2,185.7,24.9,375.3l9.6,344.6H5000h3264.6l9.6-344.6c5.7-189.6,17.2-360,26.8-379.1c23-46,111.1-90,185.7-90c42.1,0,78.5,19.1,124.5,65.1l65.1,65.1v344.6v344.6l225.9,7.7c183.8,7.7,245.1,17.2,342.7,57.4c281.5,118.7,484.4,325.5,601.2,618.5l46,114.9l5.7,2406.8c5.7,2659.5,9.6,2540.8-114.9,2780.1c-78.5,149.4-279.5,350.4-428.9,428.9c-233.6,122.5-153.2,118.7-2420.2,118.7H4875.5L5942,3640c610.8,610.8,1076.1,1089.5,1087.5,1122c57.4,155.1-126.4,314-273.8,239.3c-23-11.5-564.8-543.8-1204.3-1183.3L4387.3,2657.7L3225.1,3818.1c-641.4,639.5-1183.3,1171.8-1206.3,1183.3C1957.5,5032,1896.3,5026.2,1829.3,4986z M9026.6,2140.8c197.2-51.7,319.8-157,413.6-354.2l49.8-105.3V-683.4c0-2244-1.9-2370.4-34.5-2466.1c-47.9-134-193.4-291-323.6-350.4l-101.5-46H5000H969.6l-99.6,46c-118.7,53.6-260.4,197.2-317.8,323.6l-42.1,90v2383.8v2383.8l49.8,105.3c90,189.6,222.1,304.4,417.4,356.1c68.9,19.2,970.8,24.9,4013.2,24.9C8404.3,2169.5,8930.9,2165.7,9026.6,2140.8z"/><path d="M1993.9,1710c-78.5-21.1-216.4-74.7-306.4-118.7c-132.1-65.1-197.2-114.9-344.6-264.2c-149.3-147.4-199.1-212.5-264.2-344.6c-158.9-317.8-157-304.4-157-1669.6c0-1361.3,0-1353.7,143.6-1652.4c185.7-382.9,494-637.6,919.1-760.2l153.2-44h1838.1c1736.6,0,1845.8,1.9,1972.1,36.4c534.2,143.6,911.4,520.8,1055,1055c34.5,124.5,36.4,222.1,36.4,1359.4c0,1223.5,0,1225.4-44,1378.6c-122.5,425.1-377.2,733.3-760.1,919.1c-310.2,149.3-218.3,143.6-2272.7,141.7C2223.7,1746.4,2129.9,1744.4,1993.9,1710z M5947.8,1290.7c302.5-120.6,517-335.1,628-628c42.1-109.1,42.1-126.4,47.9-1307.7c3.8-815.7-1.9-1227.3-15.3-1296.2c-74.7-360-411.7-696.9-769.7-769.7c-70.8-15.3-656.7-21.1-1910.9-17.2l-1809.4,5.7l-111,42.1c-293,111.1-507.4,325.5-628,628l-45.9,114.9l-5.7,1181.4c-5.7,1307.7-3.8,1324.9,114.9,1554.7c80.4,149.4,279.5,350.4,428.9,428.9c229.8,120.6,164.7,116.8,2152.1,113l1809.4-3.8L5947.8,1290.7z"/><path d="M7515.9,1281.1c-46-46-65.1-82.3-65.1-124.5c0-82.3,44-162.8,105.3-189.6c65.1-30.6,945.9-32.6,1011-1.9c59.4,26.8,109.1,113,109.1,189.6c0,44-19.1,80.4-65.1,126.4l-65.1,65.1h-482.5H7581L7515.9,1281.1z"/><path d="M7535.1,488.4c-105.3-84.3-113-208.7-19.2-302.5l65.1-65.1h482.5H8546l65.1,65.1c70.8,70.8,84.3,141.7,42.1,231.7c-44,97.7-88.1,105.3-603.1,105.3C7628.9,522.9,7571.4,519,7535.1,488.4z"/><path d="M7571.4-310c-63.2-26.8-120.6-113-120.6-181.9c0-70.8,57.4-155.1,124.5-183.8c49.8-21.1,166.6-26.8,488.2-26.8c321.7,0,438.5,5.7,488.3,26.8c67,28.7,124.5,113,124.5,183.8c0,70.8-57.4,155.1-124.5,183.8C8459.9-269.8,7661.4-269.8,7571.4-310z"/><path d="M7515.9-1169.7l-65.1-65.1v-873.1c0-972.7,0-965,124.5-1018.6c93.8-38.3,882.7-38.3,976.5,0c124.5,53.6,124.5,45.9,124.5,1018.6v873.1l-65.1,65.1l-65.1,65.1h-482.5H7581L7515.9-1169.7z M8270.3-2123.2l3.8-608.9h-210.6h-210.6v599.3c0,331.2,5.7,607,13.4,614.6c7.6,7.7,99.6,9.6,204.9,7.7l193.4-5.7L8270.3-2123.2z"/></g></g>
</svg>