<?xml version="1.0" encoding="utf-8"?>
<!-- Svg Vector Icons : http://www.onlinewebfonts.com/icon -->
<!DOCTYPE svg PUBLIC "-//W3C//DTD SVG 1.1//EN" "http://www.w3.org/Graphics/SVG/1.1/DTD/svg11.dtd">
<svg version="1.1" xmlns="http://www.w3.org/2000/svg" xmlns:xlink="http://www.w3.org/1999/xlink" x="0px" y="0px" viewBox="0 0 1000 1000" enable-background="new 0 0 1000 1000" xml:space="preserve">
<metadata> Svg Vector Icons : http://www.onlinewebfonts.com/icon </metadata>
<g><g transform="translate(0.000000,511.000000) scale(0.100000,-0.100000)"><path d="M4476,4382.9c-1088.6-82.4-2160-435.1-3108.8-1021.6c-421.7-260.7-1061.8-776.2-1173-943C85,2253.5,69.6,2031.2,154,1841.5c57.5-132.2,1096.3-1173,1240.1-1245.8c208.9-101.6,475.3-74.7,645.9,67.1c460,381.4,665.1,527.1,952.6,676.6c178.2,92,264.5,182.1,325.8,335.4c42.2,107.3,44.1,141.8,55.6,736l9.6,622.9l207,42.2c113.1,21.1,289.4,49.8,392.9,63.2c285.6,34.5,1397.2,47.9,1776.7,21.1c297.1-21.1,659.3-72.8,805-113.1l57.5-15.3l9.6-632.5c15.3-856.7,15.3-858.6,460-1109.7c283.7-161,576.9-368,785.8-555.8c220.4-197.4,429.3-253,670.8-172.5c97.8,30.7,147.6,74.7,684.3,609.5c659.3,655.5,665.1,665.1,667,923.8c0,251.1-63.2,345-461.9,682.3C8063.9,3942.1,6279.5,4519,4476,4382.9z M5616.3,3961.2c1366.5-124.6,2681.4-701.5,3712.5-1627.2c153.3-138,189.7-205.1,159.1-295.2c-13.4-40.3-197.4-237.7-542.4-582.7c-471.5-469.6-529-521.3-586.5-521.3c-80.5,0-122.7,23-247.2,136.1c-216.6,197.4-611.4,469.6-904.6,622.9c-57.5,30.7-115,76.7-128.4,103.5c-19.2,36.4-24.9,220.4-24.9,724.5c0,739.8-5.7,780.1-109.2,833.7c-90.1,47.9-500.2,141.8-772.4,180.2c-377.6,49.8-1937.7,51.7-2311.5,0c-281.7-38.3-603.7-107.3-745.6-161c-162.9-59.4-162.9-55.6-162.9-843.3c0-471.5-7.7-690-23-724.5c-13.4-30.7-74.7-76.7-166.7-126.5c-226.2-120.7-605.7-383.3-816.5-563.5c-201.2-172.5-243.4-195.5-329.7-172.5C1556.9,957.9,573.7,1923.9,525.8,2014c-63.2,118.8,11.5,214.7,414,540.5c845.2,688.1,1870.6,1153.8,2942,1339.7C4462.5,3993.8,5012.6,4014.9,5616.3,3961.2z"/><path d="M4619.7,1923.9c-467.7-82.4-897-285.6-1228.6-578.8c-162.9-145.7-323.9-329.7-431.2-490.7l-84.3-130.3h-120.7c-339.2-1.9-663.2-174.4-849.1-454.2c-80.5-120.7-159.1-329.7-161-419.7c0-40.2-116.9-297.1-331.6-728.3c-506-1021.6-492.6-958.3-492.6-2244.4v-929.6l65.2-65.2l65.2-65.2H5003h3952.1l65.2,65.2l65.2,65.2v929.6c0,1286,15.3,1220.9-492.6,2244.4c-212.7,427.4-331.6,690-331.6,728.3c-1.9,90.1-80.5,299-161,419.7c-185.9,279.8-509.8,452.3-849.1,454.2h-118.8l-115,168.7c-346.9,506-902.7,875.9-1516,1010.1C5307.8,1945,4809.4,1956.5,4619.7,1923.9z M5242.6,1527.1c1236.2-151.4,2050.8-1351.2,1734.6-2556.8c-70.9-264.5-245.3-598-425.5-803.1c-61.3-69-70.9-74.7-197.4-82.4c-174.4-11.5-371.8,30.7-548.2,116.9c-159.1,78.6-239.6,86.3-310.5,30.7c-132.3-103.5-95.8-398.7,76.7-624.8l44.1-59.4l-126.5-32.6c-657.4-164.8-1387.6,28.8-1887.9,500.2c-185.9,176.3-308.6,345-429.3,590.3c-212.7,433.1-264.5,856.7-162.9,1335.9c153.3,716.8,716.8,1316.7,1429.8,1519.9C4727,1542.5,4957,1561.6,5242.6,1527.1z M7579,218.1c153.3-90.1,279.8-302.8,279.8-471.5c0-59.4,70.9-216.6,333.5-741.7c182.1-366.1,354.6-730.2,383.3-806.9c95.8-266.4,107.3-402.5,107.3-1222.8V-3780H5003H1323.1v755.2c0,820.3,11.5,956.4,107.3,1222.8c28.8,76.7,201.2,440.8,383.3,806.9c262.6,525.2,333.5,682.3,333.5,741.7c0,103.5,59.4,253,141.8,354.6c109.2,132.2,425.5,270.2,385.2,168.7c-82.4-210.8-132.2-594.2-116.9-897c32.6-624.8,270.2-1155.7,718.7-1602.3c421.7-419.7,908.5-651.6,1500.7-711.1c371.8-38.3,812.7,26.8,1144.2,166.8l115,47.9l197.4-65.2c253-84.3,634.4-147.6,898.9-151.4c203.2-3.8,208.9-1.9,260.7,49.8l53.7,51.7l5.7,490.7l5.7,488.7l-67.1,67.1c-57.5,57.5-76.7,65.2-162.9,65.2h-97.7l65.2,130.3c151.4,302.8,235.7,621,253,971.7c17.2,310.5-15.3,548.2-118.8,904.7c-11.5,44.1-11.5,44.1,76.7,17.2C7454.4,279.4,7533,244.9,7579,218.1z M7053.8-2352.1c0-132.2-5.7-182.1-23-182.1c-147.6,0-638.2,107.3-791.6,172.5l-76.7,32.6l220.4,11.5c174.4,9.6,264.5,26.8,431.3,78.6c116.9,34.5,216.6,65.2,226.2,67.1C7048.1-2170,7053.8-2252.5,7053.8-2352.1z"/><path d="M4820.9,294.7c-157.2-38.3-279.8-107.3-392.9-220.4c-185.9-187.8-274.1-454.2-231.9-695.7c95.8-552,668.9-849.1,1167.2-607.6c310.5,151.4,506,525.2,446.6,852.9C5721.8,99.2,5271.3,404,4820.9,294.7z M5196.6-144.2c126.5-67.1,195.5-178.3,205.1-327.8c9.6-136.1-26.8-230-124.6-322c-176.3-166.8-473.4-136.1-611.4,65.2c-49.8,70.9-55.6,95.8-55.6,228.1c0,134.2,5.7,155.3,57.5,230c78.6,111.2,195.5,170.6,335.4,170.6C5079.7-100.1,5137.2-113.5,5196.6-144.2z"/></g></g>
</svg>