<?xml version="1.0" encoding="utf-8"?>
<!-- Svg Vector Icons : http://www.onlinewebfonts.com/icon -->
<!DOCTYPE svg PUBLIC "-//W3C//DTD SVG 1.1//EN" "http://www.w3.org/Graphics/SVG/1.1/DTD/svg11.dtd">
<svg version="1.1" xmlns="http://www.w3.org/2000/svg" xmlns:xlink="http://www.w3.org/1999/xlink" x="0px" y="0px" viewBox="0 0 1000 1000" enable-background="new 0 0 1000 1000" xml:space="preserve">
<metadata> Svg Vector Icons : http://www.onlinewebfonts.com/icon </metadata>
<g><g transform="translate(0.000000,511.000000) scale(0.100000,-0.100000)"><path d="M320.3,4229c-96.7-42.5-195.8-162.8-212.4-257.2c-7.1-42.5-9.4-1127.9-7.1-2416.2C108-766.1,108-785,157.5-848.7c26-35.4,77.9-87.3,113.3-113.3c63.7-47.2,92-49.5,958-49.5s894.3,2.4,958,49.5c141.6,103.8,162.8,158.1,169.9,436.5l9.4,259.6l781-7.1c863.6-9.4,840-4.7,1184.5-177c245.4-122.7,486.1-304.4,840-637.1c174.6-162.8,502.6-446,729.1-627.6c226.5-184.1,490.8-408.2,587.5-500.2c387-365.7,776.3-906.1,1057.1-1470c87.3-172.2,179.3-325.6,205.3-339.8c25.9-14.2,103.8-18.9,186.4-9.4c646.5,66.1,1017,863.6,752.7,1625.7c-103.8,302-247.8,497.9-672.5,913.1c-353.9,346.9-552.1,580.4-639.4,748c-21.2,42.5-37.7,80.2-37.7,87.3c0,7.1,368.1,14.2,821.1,18.9l818.8,7.1l120.3,63.7c179.3,94.4,252.5,165.2,342.1,330.3c73.2,136.8,80.2,165.2,80.2,349.2c0,160.4-11.8,221.8-54.3,304.4c-28.3,59-51.9,108.5-51.9,113.3c0,2.4,42.5,28.3,94.4,54.3c127.4,63.7,245.4,188.8,323.3,337.4c56.6,106.2,66.1,151,66.1,323.3s-9.4,217.1-66.1,323.3c-77.9,148.6-195.8,273.7-323.3,337.4c-51.9,25.9-94.4,54.3-94.4,61.3c0,4.7,23.6,56.6,51.9,110.9c44.8,80.2,54.3,136.9,54.3,299.7c0,172.2-9.5,217.1-66.1,323.3c-77.9,148.6-195.8,273.7-323.3,337.4c-51.9,25.9-94.4,54.3-94.4,61.3c0,4.7,23.6,56.6,51.9,110.9c77.9,146.3,75.5,453-4.7,618.2c-73.1,151-214.7,292.6-365.7,365.7l-118,59l-1696.5,7.1c-1472.3,4.7-1724.8,0-1899.4-30.7c-401.1-75.5-785.7-278.4-1075.9-568.7l-151-151h-707.9H2366l-9.4,257.2c-7.1,278.4-28.3,332.7-169.9,436.5c-61.3,47.2-96.7,49.6-929.7,54.3C572.8,4259.7,376.9,4255,320.3,4229z M1983.8,1619.4V-645.7h-755.1h-755v2265.2v2265.1h755h755.1V1619.4z M8604.6,3823.2c125.1-92,162.8-167.5,162.8-316.2s-37.7-224.2-162.8-316.2c-54.3-42.5-110.9-51.9-372.8-61.3c-285.5-11.8-309.1-16.5-351.6-68.4c-56.6-70.8-56.6-169.9,0-240.7c44.8-56.6,54.3-56.6,540.3-68.4c542.7-11.8,556.9-16.5,674.8-174.6c68.4-92,68.4-313.8,0-405.8c-118-158.1-132.1-162.8-674.8-174.6c-486.1-11.8-495.5-11.8-540.3-68.4c-56.6-70.8-56.6-169.9,0-240.7c44.8-56.6,44.8-56.6,729.1-68.4c646.5-11.8,689-14.2,750.3-61.4c125.1-92,162.8-167.5,162.8-316.2c0-148.6-37.7-224.2-162.8-316.2c-61.3-47.2-103.8-49.5-750.3-61.3c-684.3-11.8-684.3-11.8-729.1-68.4c-56.6-70.8-56.6-169.9,0-240.7c44.8-56.6,54.3-56.6,540.3-68.4c455.4-11.8,502.6-16.5,561.6-61.4c125.1-92,162.8-167.5,162.8-316.2c0-148.6-37.7-224.2-162.8-316.2c-61.3-47.2-101.5-49.5-1033.5-61.3L6981.2-280l-47.2-59c-75.5-92-47.2-269,87.3-530.9c139.2-276.1,361-545.1,738.5-901.3c328-309.1,495.5-526.2,571-748c125-351.6,66.1-769.2-139.2-988.6c-61.3-68.4-167.5-134.5-212.4-134.5c-11.8,0-82.6,113.3-158.1,252.5c-427.1,802.2-825.8,1274.2-1625.7,1918.3c-231.2,188.8-556.8,467.2-719.7,622.9C4968.6-369.7,4560.4-96,4142.8,40.9c-158.1,51.9-205.3,54.3-972.1,63.7l-809.3,7.1v1510.1v1507.7h795.2h795.2L4105,3297c271.3,294.9,634.7,504.9,974.5,561.6c68.4,11.8,875.4,18.9,1793.2,16.5C8517.3,3872.8,8540.9,3872.8,8604.6,3823.2z"/></g></g>
</svg>