<?xml version="1.0" encoding="utf-8"?>
<!-- Svg Vector Icons : http://www.onlinewebfonts.com/icon -->
<!DOCTYPE svg PUBLIC "-//W3C//DTD SVG 1.1//EN" "http://www.w3.org/Graphics/SVG/1.1/DTD/svg11.dtd">
<svg version="1.1" xmlns="http://www.w3.org/2000/svg" xmlns:xlink="http://www.w3.org/1999/xlink" x="0px" y="0px" viewBox="0 0 1000 1000" enable-background="new 0 0 1000 1000" xml:space="preserve">
<metadata> Svg Vector Icons : http://www.onlinewebfonts.com/icon </metadata>
<g><g transform="translate(0.000000,511.000000) scale(0.100000,-0.100000)"><path d="M7736.9,4245.9c-21.3-14.2-108.6-165.3-193.6-337.7C7267,3348.6,6875,2803.1,6485.4,2437.1c-96.8-89.7-366-318.8-597.5-505.4c-231.4-186.6-547.8-460.5-701.3-606.9c-363.7-344.8-618.7-536-883.2-661.2C3956.2,496,3906.7,488.9,3084.9,488.9h-725l-9.5,257.4c-7.1,278.7-28.3,333-170,436.9c-63.8,47.2-92.1,49.6-958.7,49.6c-866.7,0-895-2.4-958.7-49.6c-35.4-26-87.4-77.9-113.3-113.3C100,1006,100,991.9,100-1400.3c0-2392.1,0-2406.3,49.6-2470.1c26-35.4,77.9-87.4,113.3-113.4c63.8-47.2,92.1-49.6,958.7-49.6c866.7,0,895,2.4,958.7,49.6c141.7,103.9,162.9,158.2,170,436.9l9.5,257.4H3066h703.7l153.5-151.1c304.6-299.9,687.2-498.3,1091-569.1c184.2-30.7,458.1-35.4,1900.9-30.7l1686.1,7.1l120.4,63.8c179.5,94.5,252.7,165.3,342.4,330.6c73.2,137,80.3,165.3,80.3,349.5c0,160.6-11.8,222-54.3,304.6c-28.3,59-52,108.6-52,113.4c0,2.4,42.5,28.3,94.5,54.3c127.5,63.8,245.6,188.9,323.5,337.7c56.7,106.3,66.1,151.1,66.1,323.5c0,160.6-11.8,222-54.3,304.6c-28.3,59-52,108.6-52,113.4c0,2.4,42.5,28.3,94.5,54.3c127.5,63.8,245.6,188.9,323.5,337.7c56.7,106.3,66.1,151.1,66.1,323.5c0,172.4-9.5,217.3-66.1,323.5c-77.9,148.8-196,273.9-323.5,337.7c-52,26-94.5,52-94.5,54.3c0,4.7,23.6,54.3,52,113.3c77.9,153.5,75.6,458.1-4.7,623.4c-73.2,151.1-214.9,292.8-366,366c-118.1,59-120.4,59-939.9,66.1c-932.8,7.1-854.9-16.5-717.9,217.3c47.2,80.3,238.5,292.8,491.2,545.5c552.6,552.6,682.5,732.1,791.1,1095.7c61.4,200.7,61.4,635.2,0,814.7c-111,325.9-285.7,545.5-519.5,651.8C8062.8,4250.7,7798.3,4283.7,7736.9,4245.9z M8065.2,3832.7c290.4-153.5,415.6-663.6,264.5-1091c-75.6-222-243.2-439.2-571.5-748.6c-167.7-158.2-380.2-377.8-469.9-488.8c-162.9-200.7-375.5-583.3-375.5-675.4c0-30.7-33.1-73.2-89.7-113.3c-101.5-68.5-160.6-141.7-243.2-297.5c-77.9-148.8-80.3-458.1-2.4-611.6c28.3-59,52-108.6,52-113.3c0-2.4-40.1-26-87.4-52c-127.5-63.8-278.6-229.1-342.4-368.4c-70.8-160.6-73.2-427.4-2.4-580.9c61.4-139.3,198.3-290.5,330.6-368.4c54.3-30.7,101.5-61.4,101.5-66.1c0-2.4-23.6-56.7-52-120.4c-73.2-162.9-73.2-425.1,0-588c63.8-139.3,188.9-276.3,330.6-358.9c54.3-33.1,99.2-61.4,99.2-66.1c0-2.4-21.3-54.3-47.2-111c-85-193.6-80.3-422.7,11.8-639.9c16.5-42.5-21.3-42.5-946.9-35.4l-965.8,7.1l-207.8,73.2c-297.5,106.3-448.7,205.4-694.3,451l-219.6,219.6h-791.1h-791.1v1508.9V108.7l810,7.1c767.5,9.4,814.7,11.8,972.9,63.8c415.6,137,821.8,408.5,1334.2,892.6c162.9,153.5,488.8,432.1,720.2,621.1c805.2,649.4,1199.6,1117,1643.6,1950.6c66.1,122.8,129.9,222,141.7,222C7992,3865.8,8029.7,3851.6,8065.2,3832.7z M1977.3-1400.3v-2267h-755.7H466v2267v2267h755.7h755.7V-1400.3z M8981.4,427.5c125.2-92.1,162.9-167.7,162.9-316.4c0-148.8-37.8-224.3-162.9-316.4c-61.4-47.2-99.2-49.6-906.8-56.7c-552.6-4.7-873.7,2.4-930.4,18.9c-238.5,68.5-330.6,396.7-167.7,592.7c118.1,137,125.1,139.3,1074.5,132.2C8884.6,477.1,8920,474.7,8981.4,427.5z M9359.2-706c125.2-92.1,162.9-167.7,162.9-316.4c0-148.8-37.8-224.3-162.9-316.4c-63.7-49.6-89.7-49.6-1334.2-49.6H6754.6l-82.7,63.8c-222,167.7-193.6,505.3,52,637.6c77.9,40.1,151.1,42.5,1327.1,37.8C9264.8-656.4,9295.5-656.4,9359.2-706z M8981.4-1839.5c125.2-92.1,162.9-167.7,162.9-316.4c0-148.8-37.8-224.3-162.9-316.4c-63.7-47.2-92.1-49.6-956.4-49.6h-892.6l-82.7,63.8c-222,167.7-193.6,505.3,52,637.6c77.9,40.1,139.3,42.5,949.3,37.8C8882.2-1789.9,8920-1792.3,8981.4-1839.5z M8603.6-2973c125.2-92.1,162.9-167.6,162.9-316.4c0-148.8-37.8-224.3-162.9-316.4c-59-44.9-103.9-49.6-545.5-56.7c-448.7-7.1-486.5-4.7-578.6,42.5c-172.4,87.4-247.9,278.6-179.5,458.1c42.5,111,82.7,155.9,191.3,214.9c59,30.7,148.8,35.4,559.7,30.7C8502-2923.4,8544.5-2928.1,8603.6-2973z"/></g></g>
</svg>