<?xml version="1.0" encoding="utf-8"?>
<!-- Svg Vector Icons : http://www.onlinewebfonts.com/icon -->
<!DOCTYPE svg PUBLIC "-//W3C//DTD SVG 1.1//EN" "http://www.w3.org/Graphics/SVG/1.1/DTD/svg11.dtd">
<svg version="1.1" xmlns="http://www.w3.org/2000/svg" xmlns:xlink="http://www.w3.org/1999/xlink" x="0px" y="0px" viewBox="0 0 1000 1000" enable-background="new 0 0 1000 1000" xml:space="preserve">
<metadata> Svg Vector Icons : http://www.onlinewebfonts.com/icon </metadata>
<g><g transform="translate(0.000000,512.000000) scale(0.100000,-0.100000)"><path d="M2551.3,4987.7c-126.5-44.1-224.3-120.8-304.8-239.6c-74.8-109.3-101.6-197.4-101.6-335.4c0-55.6,72.8-759,162.9-1562.1c161-1435.6,162.9-1460.6,220.4-1577.5c70.9-141.9,176.3-239.6,320.1-293.3c92-34.5,149.5-38.3,513.7-38.3h412.1V682.7c0-141.8-3.8-258.8-9.6-258.8c-76.7,0-578.9-118.8-776.3-184c-306.7-101.6-492.6-199.3-647.9-343.1c-153.3-141.8-201.3-253-199.3-460c17.3-964.1,573.1-1826.6,1468.2-2275.2c86.3-42.2,157.2-78.6,161-82.4c1.9-1.9-61.3-266.4-141.8-586.5c-128.4-517.5-143.8-598-138-716.9c15.3-222.3,136.1-404.4,337.3-502.2l109.3-53.7h1063.8h1063.8l109.3,53.7c201.3,97.8,322,279.9,337.3,502.2c5.7,118.8-9.6,199.3-138,716.9c-80.5,320.1-143.8,584.6-141.8,586.5c3.8,3.8,74.7,40.2,161,82.4c895.1,448.5,1451,1309.1,1466.3,2275.2c3.8,210.8-44.1,318.2-207,469.6C7435.1,103.8,7017.3,274.4,6494,376c-136.1,26.8-251.1,47.9-256.8,47.9c-5.8,0-9.6,116.9-9.6,258.8v258.8h412.1c360.3,0,423.6,3.8,507.9,36.4c145.7,55.6,256.8,157.2,325.8,295.2c57.5,116.9,59.4,141.8,222.3,1585.1c107.3,967.9,161,1512.3,155.3,1600.5c-11.5,222.3-134.2,402.5-335.4,502.2l-109.3,53.7l-2376.7,3.8C2766,5022.1,2647.1,5022.1,2551.3,4987.7z M7329.7,4594.7c42.2-19.2,78.6-51.8,97.8-93.9c28.8-61.3,23-132.3-134.2-1543c-118.8-1075.3-172.5-1491.2-193.6-1523.8c-15.3-24.9-51.8-55.6-78.6-67.1c-69-32.6-3971.5-32.6-4040.5,0c-26.8,11.5-63.3,42.1-78.6,67.1c-21.1,32.6-74.8,448.5-193.6,1523.8c-157.2,1408.8-162.9,1481.6-134.2,1543c59.4,126.5-74.8,118.8,2422.7,120.8C6931,4621.6,7274.1,4617.7,7329.7,4594.7z M5821.2,703.8l5.7-226.2L5602.7,491c-285.6,17.2-918.1,17.2-1203.7,0l-222.3-13.4v218.5c0,120.8,5.7,226.2,13.4,231.9c5.7,7.7,375.7,11.5,818.4,9.6l806.9-5.8L5821.2,703.8z M5882.6,69.3C6574.5-13.1,7184-197.1,7383.4-384.9c90.1-86.3,90.1-136.1,1.9-220.4c-239.6-224.3-981.4-421.7-1819-484.9c-1040.8-76.7-2194.7,74.7-2771.6,366.1c-132.3,65.2-247.3,170.6-247.3,224.3c0,157.2,465.8,369.9,1073.4,490.7c218.5,44.1,619.1,95.8,881.7,115C4740.2,123,5635.3,100,5882.6,69.3z M2938.5-1222.5c222.3-78.6,484.9-143.8,768.6-191.7c450.4-74.7,636.4-88.2,1293.8-88.2c657.4,0,843.4,13.4,1293.8,88.2c383.3,65.2,810.8,185.9,1012,287.5c38.3,21.1,70.9,32.6,70.9,28.8c0-5.7-23-72.8-49.8-149.5c-270.3-751.4-899-1265-1771.1-1447.1c-249.2-51.8-900.9-47.9-1152,7.7c-260.7,59.4-400.6,107.3-640.2,226.2c-525.2,260.7-897,674.7-1090.6,1213.3c-26.8,76.7-49.8,143.8-49.8,149.5c0,3.8,32.6-7.7,72.8-28.8C2735.3-1145.9,2844.6-1190,2938.5-1222.5z M4445-3106.7c308.6-53.7,803.1-53.7,1111.7,0c122.7,23,233.8,44.1,249.2,51.7c24.9,7.7,55.6-97.7,172.5-563.5c141.8-575,141.8-575,109.3-644c-59.4-124.6-57.5-124.6-1086.8-124.6s-1027.4,0-1086.8,124.6c-32.6,69-32.6,69,109.3,644c116.9,465.8,147.6,571.2,172.5,563.5C4211.2-3062.6,4322.4-3083.7,4445-3106.7z"/><path d="M3871.9,4199.9c-136.1-28.8-243.4-92-345-201.3c-111.2-122.7-155.3-237.7-155.3-404.4c0-400.6,373.8-693.8,755.2-592.3c333.5,88.2,532.9,433.2,440.8,762.9c-9.6,30.7,15.3,32.6,337.3,32.6c291.3,0,358.4,5.7,402.5,32.6c111.2,65.2,130.3,222.3,40.2,314.3l-55.6,55.6h-613.3c-337.3,0-636.4,3.8-667,7.7C3981.2,4213.3,3917.9,4207.5,3871.9,4199.9z M4078.9,3770.5c61.3-32.6,97.8-103.5,97.8-195.5c0-187.8-272.2-249.2-369.9-84.3c-53.7,88.2-42.2,166.8,32.6,241.5C3912.2,3805,3986.9,3816.5,4078.9,3770.5z"/></g></g>
</svg>