<?xml version="1.0" encoding="utf-8"?>
<!-- Svg Vector Icons : http://www.onlinewebfonts.com/icon -->
<!DOCTYPE svg PUBLIC "-//W3C//DTD SVG 1.1//EN" "http://www.w3.org/Graphics/SVG/1.1/DTD/svg11.dtd">
<svg version="1.1" xmlns="http://www.w3.org/2000/svg" xmlns:xlink="http://www.w3.org/1999/xlink" x="0px" y="0px" viewBox="0 0 1000 1000" enable-background="new 0 0 1000 1000" xml:space="preserve">
<metadata> Svg Vector Icons : http://www.onlinewebfonts.com/icon </metadata>
<g><g transform="translate(0.000000,511.000000) scale(0.100000,-0.100000)"><path d="M2862.8,3757.7c-283.8-59.4-531.1-199.4-736.2-416c-72.9-78.6-163-191.7-199.4-253.1l-65.2-113.1l-289.5-5.7l-287.6-5.8l-34.5,78.6c-44.1,97.8-195.6,239.7-312.5,291.4c-65.2,30.7-128.5,40.3-233.9,40.3c-176.4,0-285.7-42.2-419.9-168.7c-132.3-122.7-182.1-245.4-184.1-441c0-130.4,7.7-170.6,53.7-262.7c57.5-118.9,159.1-220.5,285.7-287.6c69-36.4,111.2-44.1,264.6-44.1c153.4,0,195.6,7.7,264.6,44.1c117,61.4,220.5,161.1,274.2,262.7l46,86.3h220.5h220.5l-5.7-2956.5c-3.8-2120.5,0-2979.4,15.3-3031.2c13.4-47.9,42.2-86.3,82.4-109.3c59.4-36.4,115-38.4,2358.3-38.4c2124.3,0,2302.7,1.9,2354.4,32.6c28.8,17.2,63.3,53.7,74.8,80.5c13.4,34.5,21.1,565.6,24.9,1602.9l3.8,1553l759.2,9.6c636.5,7.7,765,13.4,793.8,38.3c86.3,70.9,86.3,80.5,86.3,1485.9v1332.5h216.6h214.7l46-86.3c53.7-101.6,157.2-201.3,274.2-262.7c69-36.4,111.2-44.1,264.6-44.1c153.4,0,195.6,7.7,264.6,44.1c126.6,67.1,228.2,168.7,285.7,287.6c72.9,147.6,74.8,364.3,7.7,515.8c-53.7,118.9-197.5,260.7-324,316.4c-124.6,55.6-343.2,55.6-467.8,0c-117-51.8-268.4-193.6-312.5-291.4l-34.5-78.6l-228.2,5.8l-228.1,5.7l-36.4,105.5c-115,343.2-383.5,590.5-738.2,680.6C7312.8,3803.7,3064.1,3801.8,2862.8,3757.7z M6413.6,3374.3c-3.8-9.6-34.5-69-69-134.2c-122.7-235.8-118.9-159.1-118.9-2358.3v-1999.7H4183.8H2141.9V699.7c0,1616.3,3.8,1829.1,30.7,1923c120.8,404.6,439.1,686.4,839.8,745.8C3140.8,3387.7,6423.2,3391.5,6413.6,3374.3z M7502.6,3320.6c55.6-23,132.3-76.7,172.5-118.9c78.6-76.7,157.2-207.1,140-226.2c-5.8-5.7-266.5-7.7-580.9-5.7l-567.5,5.7l40.3,76.7C6856.5,3337.8,7207.4,3454.8,7502.6,3320.6z M840.1,2910.3c44.1-44.1,55.6-72.9,55.6-136.1c0-44.1-9.6-95.9-19.2-117c-24.9-42.2-117-93.9-172.6-93.9c-118.9,0-226.2,134.2-201.3,251.2C535.2,2960.1,732.7,3015.7,840.1,2910.3z M9414.1,2927.5c72.9-57.5,99.7-153.4,63.3-235.8c-28.8-70.9-113.1-128.5-184.1-128.5c-55.6,0-147.6,51.8-172.5,93.9c-9.6,21.1-19.2,76.7-19.2,122.7c0,72.9,9.6,94,59.4,136.1C9233.9,2977.4,9343.2,2983.1,9414.1,2927.5z M7855.4,1949.7v-613.5h-613.5h-613.5v613.5v613.5h613.5h613.5V1949.7z M7855.4,521.4V109.1h-613.5h-613.5v398.8c0,220.5,5.7,406.5,13.4,412.2c5.8,7.7,281.8,13.4,613.5,13.4h600.1V521.4z M6225.7-1731.4v-210.9H4183.8H2141.9v210.9v210.9h2041.9h2041.9V-1731.4z M6225.7-2757.2v-412.2H4183.8H2141.9v412.2v412.2h2041.9h2041.9V-2757.2z"/></g></g>
</svg>