<?xml version="1.0" encoding="utf-8"?>
<!-- Svg Vector Icons : http://www.onlinewebfonts.com/icon -->
<!DOCTYPE svg PUBLIC "-//W3C//DTD SVG 1.1//EN" "http://www.w3.org/Graphics/SVG/1.1/DTD/svg11.dtd">
<svg version="1.1" xmlns="http://www.w3.org/2000/svg" xmlns:xlink="http://www.w3.org/1999/xlink" x="0px" y="0px" viewBox="0 0 1000 1000" enable-background="new 0 0 1000 1000" xml:space="preserve">
<metadata> Svg Vector Icons : http://www.onlinewebfonts.com/icon </metadata>
<g><g transform="translate(0.000000,511.000000) scale(0.100000,-0.100000)"><path d="M1625,3361.3c-147.7-74.8-260.9-143.9-274.3-168.8c-15.3-26.9-28.8-153.5-34.5-347.2l-9.6-305l-151.5-51.8c-99.7-32.6-166.9-67.1-195.7-101.7c-44.1-51.8-46-63.3-46-395.1v-343.3l-186.1-7.7c-218.7-9.6-333.8-53.7-456.5-178.4c-126.6-126.6-172.6-239.8-170.7-431.6c0-138.1,7.7-178.4,49.9-260.9c76.7-145.8,136.2-207.2,272.4-278.1l122.8-63.3L825.1-546c151.5-535.2,305-1028.1,335.7-1093.4c80.6-168.8,228.3-356.8,370.2-473.8c211-174.5,588.9-328,809.5-328c38.4,0,69.1-3.8,69.1-9.6c0-5.8-59.5-130.4-134.3-278.1c-78.6-157.3-134.3-291.6-134.3-326.1c0-176.5,189.9-274.3,320.3-165c32.6,28.8,124.7,188,235.9,412.4l182.2,366.4h2119.6h2119.6l182.2-366.4c191.8-385.6,247.5-458.4,347.2-458.4c124.7,0,209.1,86.3,209.1,212.9c0,30.7-57.5,172.6-134.3,324.2c-74.8,147.7-134.3,272.4-134.3,278.1c0,5.7,30.7,9.6,69,9.6c220.6,0,598.5,153.5,809.5,328c142,117,289.7,305,370.2,473.8c30.7,65.2,184.2,558.2,335.7,1093.4l280.1,974.4l122.8,63.3c136.2,71,195.7,130.4,272.4,278.1c44.1,84.4,51.8,120.8,51.8,260.9c0,134.3-9.6,180.3-47.9,259c-59.5,122.8-174.6,237.9-297.3,297.3l-95.9,48l-3658,5.8l-3659.9,3.8v370.2v372.1l71,21.1l72.9,23l172.6-172.6c193.7-191.8,251.3-222.5,347.2-191.8c90.1,30.7,141.9,103.6,141.9,197.6c0,74.8-11.5,90.2-264.7,343.4c-222.5,222.5-274.3,264.7-322.3,264.7c-30.7,0-186.1-42.2-343.3-95.9c-157.3-51.8-289.6-95.9-291.6-95.9c-3.8,0-5.8,59.5-5.8,134.3v134.3l159.2,78.6c86.3,44.1,176.5,95.9,199.5,117c124.7,115.1,23,341.4-155.4,341.4C1897.4,3486,1763.1,3430.4,1625,3361.3z M1719,1941.9v-297.3h-201.4h-203.3l5.8,234l5.8,232.1L1508,2174c99.7,34.5,188,63.3,197.6,63.3C1713.2,2239.2,1719,2104.9,1719,1941.9z M9382.1,1211c78.6-36.4,132.4-140,115.1-218.7c-19.2-90.2-92.1-145.8-205.2-161.1c-132.3-15.4-8453.4-15.4-8585.7,0C537.4,852.3,454.9,977,520.1,1115.1c65.2,136.2-316.5,124.7,4475.1,126.6C8906.4,1241.7,9324.5,1239.8,9382.1,1211z M9017.6,393.9c-3.8-13.4-120.8-422-259-907.3c-161.1-562-274.3-922.6-310.7-991.7c-122.8-232.1-400.9-441.2-669.4-504.5c-184.2-42.2-5374.7-42.2-5558.9,0c-268.5,63.3-531.3,260.9-663.7,496.8c-48,86.3-132.4,352.9-316.5,999.4c-138.1,485.3-255.1,893.9-259,907.3c-5.7,17.3,805.6,23,4018.6,23S9023.4,411.2,9017.6,393.9z"/><path d="M1709.4-12.8C1554-79.9,1554-131.7,1724.7-724.4c78.6-276.2,161.1-535.2,182.2-577.4c115.1-224.4,448.9-387.5,623.4-305c155.4,72.9,155.4,291.6,3.8,364.5c-34.5,15.3-86.3,28.8-113.2,28.8c-26.9,0-74.8,23-105.5,53.7c-49.9,44.1-74.8,115.1-193.7,540.9c-76.7,268.5-151.5,510.2-166.9,533.2C1930-45.4,1822.6,16,1782.3,14.1C1774.6,12.2,1740.1,0.7,1709.4-12.8z"/></g></g>
</svg>