<?xml version="1.0" encoding="utf-8"?>
<!-- Svg Vector Icons : http://www.onlinewebfonts.com/icon -->
<!DOCTYPE svg PUBLIC "-//W3C//DTD SVG 1.1//EN" "http://www.w3.org/Graphics/SVG/1.1/DTD/svg11.dtd">
<svg version="1.1" xmlns="http://www.w3.org/2000/svg" xmlns:xlink="http://www.w3.org/1999/xlink" x="0px" y="0px" viewBox="0 0 1000 1000" enable-background="new 0 0 1000 1000" xml:space="preserve">
<metadata> Svg Vector Icons : http://www.onlinewebfonts.com/icon </metadata>
<g><path d="M990,590.4c-31.2-36-67.3-62.2-105.3-88.4c37.1-26.1,72.4-50.7,103-84.1c-39.8-22-81.3-34.8-124.7-46.9c28.7-35.7,50.6-72.9,67-116.6H797.2c10.8-42.6,20.8-83.9,23.9-128.4c-46.7,5.7-86,25.7-127.4,43.7c-2.1-45.6-9-88.5-20.9-132.1c-39.7,21.8-70.2,51-101.8,81.6c-15.5-42.3-38.8-77.4-67.3-111.6c-30.5,33-46.3,72-66.9,110c-30.8-31.3-61.7-59.5-99.1-82.1c-19.2,42.1-23.4,85.5-29.2,129.7c-39.7-21.4-79.2-38.1-125.8-45.4c2.4,23.2,3.5,44.4,7.1,65.2c3.7,21.2,9.9,42,15.4,64.2c-44-4.8-87.5-11.1-132.1,0.6c14.4,43.4,39.5,78.9,66.6,115.6c-45.6,7.7-87.4,21.3-128.3,41.9c27.1,37.5,62.7,62.9,100,88.3C72.8,518.9,39.1,545.1,10,579c38.6,23.7,79.8,36.1,122.4,49c-25.8,36.1-49.4,71.3-68.3,113.7h138.8c-11.7,44.2-23.4,85.5-26.3,133.3c43.3-15.4,83.6-29.8,124-44.2c7.5,42.2,15,84.8,23,130.4l0,0c40.9-24.5,72.2-53.7,103.5-83.7c10.8,20.7,20,39.9,30.6,58.4c10.7,18.8,22.7,36.9,35.1,56.7c30.5-35.6,48.9-75.6,70.7-115.1c31.2,33.3,64.1,61.3,102.6,84.8c15-42.8,17.3-85.9,21.8-128.4c43.1,15.6,84.7,30.6,126.3,45.7c1.5-1.3,3.1-2.6,4.6-3.9c-8.4-41.9-16.8-83.7-25.4-126.8c45.5,3,90,7.9,138.9,0.2c-24.1-40-46.6-77.3-69.4-115.2C905.9,621.5,948.5,610,990,590.4z M689.1,501.8c-26.8,9.7-55.2,12.4-86.4,14.5c27.1,16.2,51.3,30.5,75.5,44.9c-0.7,1.9-1.4,3.8-2.1,5.7c-27.8-4.4-55.5-8.7-82.6-13c17.3,21,35,42.6,52.8,64.1c-1.1,1.4-2.2,2.9-3.4,4.3c-23.6-13-47.3-26-71.4-39.2c8.1,26.4,16.1,52.7,24.1,78.9c-1.6,1-3.2,1.9-4.8,2.9c-18.3-21.3-36.7-42.6-57.2-66.5v83.1c-2,0.4-3.9,0.8-5.8,1.2c-9.7-24.7-19.5-49.4-29.3-74.3c-9.8,25-19.8,50.2-29.7,75.4c-1.6-0.3-3.2-0.5-4.9-0.8v-87c-20.5,24-39.1,45.7-57.7,67.5c-1.7-1-3.3-2-5-3c9.1-26.8,18.2-53.6,27-79.9c-23.7,12.8-48.1,25.9-72.5,39.1c-0.9-1.4-1.9-2.8-2.8-4.2l0,0c8.4-11.2,16.6-22.7,25.4-33.6c8.6-10.5,17.9-20.4,27.5-31.3c-27.8,4.1-54.5,8-81.2,11.9c-0.6-1.5-1.2-3.1-1.8-4.6c20.4-17.1,44.1-29.4,70.9-42.3c-30.2-5.3-56.8-10-83.4-14.7c0-2.2-0.1-4.4-0.1-6.6c27.7-4.9,55.3-9.8,82.6-14.6c-23-14.7-46.7-29.9-70.4-45c0.7-1.8,1.5-3.6,2.2-5.3c27.5,4.4,55,8.8,81.2,12.9c-16.7-20.3-34.4-41.8-52.1-63.2c1.3-1.7,2.6-3.4,3.9-5c24.7,13.4,49.5,26.7,73.9,39.9c-8.9-25.3-18.1-51.5-27.4-77.7c1.5-0.8,3-1.6,4.5-2.4c22.6,17,37.7,41.1,54.8,63.3c1.2-0.2,2.4-0.3,3.6-0.5v-86.3c1.9-0.4,3.9-0.7,5.8-1c10,26.3,20.1,52.6,29.6,77.8c9.4-25,19.1-51.1,28.9-77.1c2.1,0.3,4.1,0.6,6.2,0.9c0.6,14,1.4,27.9,1.6,41.9c0.3,14.4,0.1,28.9,0.1,42.3c16.8-18.9,34.5-38.9,52.3-59c1.9,1.1,3.9,2.3,5.8,3.4c-8.2,24.8-16.5,49.7-24.4,73.6c22.7-11.9,47-24.7,71.3-37.5c1.3,1.7,2.7,3.4,4,5.1c-17.4,20.6-34.8,41.2-51.7,61.3c24.8-2.8,50.9-5.7,77.1-8.6c0.7,1.9,1.3,3.9,2,5.8c-23.3,13.9-46.6,27.8-70.2,41.9c28.4,5.3,56.2,10.4,84,15.6C689.3,498.3,689.2,500,689.1,501.8z"/></g>
</svg>